STARTFONT 2.1
FONT -xos4-Terminus-Medium-R-Normal--18-180-72-72-C-100-ISO10646-1
SIZE 18 72 72
FONTBOUNDINGBOX 10 18 0 -3
STARTPROPERTIES 20
FAMILY_NAME "Terminus"
FOUNDRY "xos4"
SETWIDTH_NAME "Normal"
ADD_STYLE_NAME ""
COPYRIGHT "Copyright (C) 2019 Dimitar Toshkov Zhekov"
NOTICE "Licensed under the SIL Open Font License, Version 1.1"
WEIGHT_NAME "Medium"
SLANT "R"
PIXEL_SIZE 18
POINT_SIZE 180
RESOLUTION_X 72
RESOLUTION_Y 72
SPACING "C"
AVERAGE_WIDTH 100
CHARSET_REGISTRY "ISO10646"
CHARSET_ENCODING "1"
MIN_SPACE 10
FONT_ASCENT 15
FONT_DESCENT 3
DEFAULT_CHAR 65533
ENDPROPERTIES
CHARS 1354
STARTCHAR char0
ENCODING 0
SWIDTH 556 0
DWIDTH 10 0
BBX 10 18 0 -3
BITMAP
0000
0000
0000
7700
4100
4100
0000
4100
4100
4100
4100
0000
4100
4100
7700
0000
0000
0000
ENDCHAR
STARTCHAR space
ENCODING 32
SWIDTH 556 0
DWIDTH 10 0
BBX 10 18 0 -3
BITMAP
0000
0000
0000
0000
0000
0000
0000
0000
0000
0000
0000
0000
0000
0000
0000
0000
0000
0000
ENDCHAR
STARTCHAR exclam
ENCODING 33
SWIDTH 556 0
DWIDTH 10 0
BBX 10 18 0 -3
BITMAP
0000
0000
0000
0800
0800
0800
0800
0800
0800
0800
0800
0000
0000
0800
0800
0000
0000
0000
ENDCHAR
STARTCHAR quotedbl
ENCODING 34
SWIDTH 556 0
DWIDTH 10 0
BBX 10 18 0 -3
BITMAP
0000
2200
2200
2200
2200
0000
0000
0000
0000
0000
0000
0000
0000
0000
0000
0000
0000
0000
ENDCHAR
STARTCHAR numbersign
ENCODING 35
SWIDTH 556 0
DWIDTH 10 0
BBX 10 18 0 -3
BITMAP
0000
0000
0000
2200
2200
2200
7F00
2200
2200
2200
2200
7F00
2200
2200
2200
0000
0000
0000
ENDCHAR
STARTCHAR dollar
ENCODING 36
SWIDTH 556 0
DWIDTH 10 0
BBX 10 18 0 -3
BITMAP
0000
0000
0800
0800
3E00
4900
4800
4800
4800
3E00
0900
0900
0900
4900
3E00
0800
0800
0000
ENDCHAR
STARTCHAR percent
ENCODING 37
SWIDTH 556 0
DWIDTH 10 0
BBX 10 18 0 -3
BITMAP
0000
0000
0000
7100
5100
7200
0200
0400
0400
0800
0800
1000
1380
2280
2380
0000
0000
0000
ENDCHAR
STARTCHAR ampersand
ENCODING 38
SWIDTH 556 0
DWIDTH 10 0
BBX 10 18 0 -3
BITMAP
0000
0000
0000
1C00
2200
2200
2200
1400
1880
2480
4300
4100
4100
2280
1C80
0000
0000
0000
ENDCHAR
STARTCHAR quotesingle
ENCODING 39
SWIDTH 556 0
DWIDTH 10 0
BBX 10 18 0 -3
BITMAP
0000
0800
0800
0800
0800
0000
0000
0000
0000
0000
0000
0000
0000
0000
0000
0000
0000
0000
ENDCHAR
STARTCHAR parenleft
ENCODING 40
SWIDTH 556 0
DWIDTH 10 0
BBX 10 18 0 -3
BITMAP
0000
0000
0000
0400
0800
0800
1000
1000
1000
1000
1000
1000
0800
0800
0400
0000
0000
0000
ENDCHAR
STARTCHAR parenright
ENCODING 41
SWIDTH 556 0
DWIDTH 10 0
BBX 10 18 0 -3
BITMAP
0000
0000
0000
1000
0800
0800
0400
0400
0400
0400
0400
0400
0800
0800
1000
0000
0000
0000
ENDCHAR
STARTCHAR asterisk
ENCODING 42
SWIDTH 556 0
DWIDTH 10 0
BBX 10 18 0 -3
BITMAP
0000
0000
0000
0000
0000
2200
1400
0800
7F00
0800
1400
2200
0000
0000
0000
0000
0000
0000
ENDCHAR
STARTCHAR plus
ENCODING 43
SWIDTH 556 0
DWIDTH 10 0
BBX 10 18 0 -3
BITMAP
0000
0000
0000
0000
0000
0800
0800
0800
7F00
0800
0800
0800
0000
0000
0000
0000
0000
0000
ENDCHAR
STARTCHAR comma
ENCODING 44
SWIDTH 556 0
DWIDTH 10 0
BBX 10 18 0 -3
BITMAP
0000
0000
0000
0000
0000
0000
0000
0000
0000
0000
0000
0000
0800
0800
0800
1000
0000
0000
ENDCHAR
STARTCHAR hyphen
ENCODING 45
SWIDTH 556 0
DWIDTH 10 0
BBX 10 18 0 -3
BITMAP
0000
0000
0000
0000
0000
0000
0000
0000
7F00
0000
0000
0000
0000
0000
0000
0000
0000
0000
ENDCHAR
STARTCHAR period
ENCODING 46
SWIDTH 556 0
DWIDTH 10 0
BBX 10 18 0 -3
BITMAP
0000
0000
0000
0000
0000
0000
0000
0000
0000
0000
0000
0000
0000
0800
0800
0000
0000
0000
ENDCHAR
STARTCHAR slash
ENCODING 47
SWIDTH 556 0
DWIDTH 10 0
BBX 10 18 0 -3
BITMAP
0000
0000
0000
0100
0100
0200
0200
0400
0400
0800
0800
1000
1000
2000
2000
0000
0000
0000
ENDCHAR
STARTCHAR zero
ENCODING 48
SWIDTH 556 0
DWIDTH 10 0
BBX 10 18 0 -3
BITMAP
0000
0000
0000
3E00
4100
4100
4300
4500
4900
5100
6100
4100
4100
4100
3E00
0000
0000
0000
ENDCHAR
STARTCHAR one
ENCODING 49
SWIDTH 556 0
DWIDTH 10 0
BBX 10 18 0 -3
BITMAP
0000
0000
0000
0800
1800
2800
0800
0800
0800
0800
0800
0800
0800
0800
3E00
0000
0000
0000
ENDCHAR
STARTCHAR two
ENCODING 50
SWIDTH 556 0
DWIDTH 10 0
BBX 10 18 0 -3
BITMAP
0000
0000
0000
3E00
4100
4100
4100
0100
0200
0400
0800
1000
2000
4000
7F00
0000
0000
0000
ENDCHAR
STARTCHAR three
ENCODING 51
SWIDTH 556 0
DWIDTH 10 0
BBX 10 18 0 -3
BITMAP
0000
0000
0000
3E00
4100
4100
0100
0100
1E00
0100
0100
0100
4100
4100
3E00
0000
0000
0000
ENDCHAR
STARTCHAR four
ENCODING 52
SWIDTH 556 0
DWIDTH 10 0
BBX 10 18 0 -3
BITMAP
0000
0000
0000
0100
0300
0500
0900
1100
2100
4100
4100
7F00
0100
0100
0100
0000
0000
0000
ENDCHAR
STARTCHAR five
ENCODING 53
SWIDTH 556 0
DWIDTH 10 0
BBX 10 18 0 -3
BITMAP
0000
0000
0000
7F00
4000
4000
4000
4000
7E00
0100
0100
0100
4100
4100
3E00
0000
0000
0000
ENDCHAR
STARTCHAR six
ENCODING 54
SWIDTH 556 0
DWIDTH 10 0
BBX 10 18 0 -3
BITMAP
0000
0000
0000
1E00
2000
4000
4000
4000
7E00
4100
4100
4100
4100
4100
3E00
0000
0000
0000
ENDCHAR
STARTCHAR seven
ENCODING 55
SWIDTH 556 0
DWIDTH 10 0
BBX 10 18 0 -3
BITMAP
0000
0000
0000
7F00
4100
4100
0100
0200
0200
0400
0400
0800
0800
0800
0800
0000
0000
0000
ENDCHAR
STARTCHAR eight
ENCODING 56
SWIDTH 556 0
DWIDTH 10 0
BBX 10 18 0 -3
BITMAP
0000
0000
0000
3E00
4100
4100
4100
4100
3E00
4100
4100
4100
4100
4100
3E00
0000
0000
0000
ENDCHAR
STARTCHAR nine
ENCODING 57
SWIDTH 556 0
DWIDTH 10 0
BBX 10 18 0 -3
BITMAP
0000
0000
0000
3E00
4100
4100
4100
4100
4100
3F00
0100
0100
0100
0200
3C00
0000
0000
0000
ENDCHAR
STARTCHAR colon
ENCODING 58
SWIDTH 556 0
DWIDTH 10 0
BBX 10 18 0 -3
BITMAP
0000
0000
0000
0000
0000
0000
0800
0800
0000
0000
0000
0000
0800
0800
0000
0000
0000
0000
ENDCHAR
STARTCHAR semicolon
ENCODING 59
SWIDTH 556 0
DWIDTH 10 0
BBX 10 18 0 -3
BITMAP
0000
0000
0000
0000
0000
0000
0800
0800
0000
0000
0000
0000
0800
0800
0800
1000
0000
0000
ENDCHAR
STARTCHAR less
ENCODING 60
SWIDTH 556 0
DWIDTH 10 0
BBX 10 18 0 -3
BITMAP
0000
0000
0000
0100
0200
0400
0800
1000
2000
2000
1000
0800
0400
0200
0100
0000
0000
0000
ENDCHAR
STARTCHAR equal
ENCODING 61
SWIDTH 556 0
DWIDTH 10 0
BBX 10 18 0 -3
BITMAP
0000
0000
0000
0000
0000
0000
7F00
0000
0000
0000
7F00
0000
0000
0000
0000
0000
0000
0000
ENDCHAR
STARTCHAR greater
ENCODING 62
SWIDTH 556 0
DWIDTH 10 0
BBX 10 18 0 -3
BITMAP
0000
0000
0000
2000
1000
0800
0400
0200
0100
0100
0200
0400
0800
1000
2000
0000
0000
0000
ENDCHAR
STARTCHAR question
ENCODING 63
SWIDTH 556 0
DWIDTH 10 0
BBX 10 18 0 -3
BITMAP
0000
0000
0000
1C00
2200
4100
4100
0100
0200
0400
0800
0800
0000
0800
0800
0000
0000
0000
ENDCHAR
STARTCHAR at
ENCODING 64
SWIDTH 556 0
DWIDTH 10 0
BBX 10 18 0 -3
BITMAP
0000
0000
0000
3F00
4080
4080
4780
4880
4880
4880
4980
4680
4000
4000
3F80
0000
0000
0000
ENDCHAR
STARTCHAR A
ENCODING 65
SWIDTH 556 0
DWIDTH 10 0
BBX 10 18 0 -3
BITMAP
0000
0000
0000
3E00
4100
4100
4100
4100
4100
7F00
4100
4100
4100
4100
4100
0000
0000
0000
ENDCHAR
STARTCHAR B
ENCODING 66
SWIDTH 556 0
DWIDTH 10 0
BBX 10 18 0 -3
BITMAP
0000
0000
0000
7E00
4100
4100
4100
4100
7E00
4100
4100
4100
4100
4100
7E00
0000
0000
0000
ENDCHAR
STARTCHAR C
ENCODING 67
SWIDTH 556 0
DWIDTH 10 0
BBX 10 18 0 -3
BITMAP
0000
0000
0000
3E00
4100
4100
4000
4000
4000
4000
4000
4000
4100
4100
3E00
0000
0000
0000
ENDCHAR
STARTCHAR D
ENCODING 68
SWIDTH 556 0
DWIDTH 10 0
BBX 10 18 0 -3
BITMAP
0000
0000
0000
7C00
4200
4100
4100
4100
4100
4100
4100
4100
4100
4200
7C00
0000
0000
0000
ENDCHAR
STARTCHAR E
ENCODING 69
SWIDTH 556 0
DWIDTH 10 0
BBX 10 18 0 -3
BITMAP
0000
0000
0000
7F00
4000
4000
4000
4000
7C00
4000
4000
4000
4000
4000
7F00
0000
0000
0000
ENDCHAR
STARTCHAR F
ENCODING 70
SWIDTH 556 0
DWIDTH 10 0
BBX 10 18 0 -3
BITMAP
0000
0000
0000
7F00
4000
4000
4000
4000
7C00
4000
4000
4000
4000
4000
4000
0000
0000
0000
ENDCHAR
STARTCHAR G
ENCODING 71
SWIDTH 556 0
DWIDTH 10 0
BBX 10 18 0 -3
BITMAP
0000
0000
0000
3E00
4100
4100
4000
4000
4000
4F00
4100
4100
4100
4100
3E00
0000
0000
0000
ENDCHAR
STARTCHAR H
ENCODING 72
SWIDTH 556 0
DWIDTH 10 0
BBX 10 18 0 -3
BITMAP
0000
0000
0000
4100
4100
4100
4100
4100
7F00
4100
4100
4100
4100
4100
4100
0000
0000
0000
ENDCHAR
STARTCHAR I
ENCODING 73
SWIDTH 556 0
DWIDTH 10 0
BBX 10 18 0 -3
BITMAP
0000
0000
0000
1C00
0800
0800
0800
0800
0800
0800
0800
0800
0800
0800
1C00
0000
0000
0000
ENDCHAR
STARTCHAR J
ENCODING 74
SWIDTH 556 0
DWIDTH 10 0
BBX 10 18 0 -3
BITMAP
0000
0000
0000
0380
0100
0100
0100
0100
0100
0100
0100
2100
2100
2100
1E00
0000
0000
0000
ENDCHAR
STARTCHAR K
ENCODING 75
SWIDTH 556 0
DWIDTH 10 0
BBX 10 18 0 -3
BITMAP
0000
0000
0000
4100
4200
4400
4800
5000
6000
6000
5000
4800
4400
4200
4100
0000
0000
0000
ENDCHAR
STARTCHAR L
ENCODING 76
SWIDTH 556 0
DWIDTH 10 0
BBX 10 18 0 -3
BITMAP
0000
0000
0000
4000
4000
4000
4000
4000
4000
4000
4000
4000
4000
4000
7F00
0000
0000
0000
ENDCHAR
STARTCHAR M
ENCODING 77
SWIDTH 556 0
DWIDTH 10 0
BBX 10 18 0 -3
BITMAP
0000
0000
0000
4080
6180
5280
5280
4C80
4C80
4080
4080
4080
4080
4080
4080
0000
0000
0000
ENDCHAR
STARTCHAR N
ENCODING 78
SWIDTH 556 0
DWIDTH 10 0
BBX 10 18 0 -3
BITMAP
0000
0000
0000
4100
4100
4100
6100
5100
4900
4500
4300
4100
4100
4100
4100
0000
0000
0000
ENDCHAR
STARTCHAR O
ENCODING 79
SWIDTH 556 0
DWIDTH 10 0
BBX 10 18 0 -3
BITMAP
0000
0000
0000
3E00
4100
4100
4100
4100
4100
4100
4100
4100
4100
4100
3E00
0000
0000
0000
ENDCHAR
STARTCHAR P
ENCODING 80
SWIDTH 556 0
DWIDTH 10 0
BBX 10 18 0 -3
BITMAP
0000
0000
0000
7E00
4100
4100
4100
4100
4100
7E00
4000
4000
4000
4000
4000
0000
0000
0000
ENDCHAR
STARTCHAR Q
ENCODING 81
SWIDTH 556 0
DWIDTH 10 0
BBX 10 18 0 -3
BITMAP
0000
0000
0000
3E00
4100
4100
4100
4100
4100
4100
4100
4100
4100
4900
3E00
0200
0100
0000
ENDCHAR
STARTCHAR R
ENCODING 82
SWIDTH 556 0
DWIDTH 10 0
BBX 10 18 0 -3
BITMAP
0000
0000
0000
7E00
4100
4100
4100
4100
4100
7E00
5000
4800
4400
4200
4100
0000
0000
0000
ENDCHAR
STARTCHAR S
ENCODING 83
SWIDTH 556 0
DWIDTH 10 0
BBX 10 18 0 -3
BITMAP
0000
0000
0000
3E00
4100
4100
4000
4000
3E00
0100
0100
0100
4100
4100
3E00
0000
0000
0000
ENDCHAR
STARTCHAR T
ENCODING 84
SWIDTH 556 0
DWIDTH 10 0
BBX 10 18 0 -3
BITMAP
0000
0000
0000
7F00
0800
0800
0800
0800
0800
0800
0800
0800
0800
0800
0800
0000
0000
0000
ENDCHAR
STARTCHAR U
ENCODING 85
SWIDTH 556 0
DWIDTH 10 0
BBX 10 18 0 -3
BITMAP
0000
0000
0000
4100
4100
4100
4100
4100
4100
4100
4100
4100
4100
4100
3E00
0000
0000
0000
ENDCHAR
STARTCHAR V
ENCODING 86
SWIDTH 556 0
DWIDTH 10 0
BBX 10 18 0 -3
BITMAP
0000
0000
0000
4100
4100
4100
4100
2200
2200
2200
1400
1400
1400
0800
0800
0000
0000
0000
ENDCHAR
STARTCHAR W
ENCODING 87
SWIDTH 556 0
DWIDTH 10 0
BBX 10 18 0 -3
BITMAP
0000
0000
0000
4080
4080
4080
4080
4080
4080
4C80
4C80
5280
5280
6180
4080
0000
0000
0000
ENDCHAR
STARTCHAR X
ENCODING 88
SWIDTH 556 0
DWIDTH 10 0
BBX 10 18 0 -3
BITMAP
0000
0000
0000
4100
4100
2200
2200
1400
0800
0800
1400
2200
2200
4100
4100
0000
0000
0000
ENDCHAR
STARTCHAR Y
ENCODING 89
SWIDTH 556 0
DWIDTH 10 0
BBX 10 18 0 -3
BITMAP
0000
0000
0000
4100
4100
2200
2200
1400
1400
0800
0800
0800
0800
0800
0800
0000
0000
0000
ENDCHAR
STARTCHAR Z
ENCODING 90
SWIDTH 556 0
DWIDTH 10 0
BBX 10 18 0 -3
BITMAP
0000
0000
0000
7F00
0100
0100
0200
0400
0800
1000
2000
4000
4000
4000
7F00
0000
0000
0000
ENDCHAR
STARTCHAR bracketleft
ENCODING 91
SWIDTH 556 0
DWIDTH 10 0
BBX 10 18 0 -3
BITMAP
0000
0000
0000
1C00
1000
1000
1000
1000
1000
1000
1000
1000
1000
1000
1C00
0000
0000
0000
ENDCHAR
STARTCHAR backslash
ENCODING 92
SWIDTH 556 0
DWIDTH 10 0
BBX 10 18 0 -3
BITMAP
0000
0000
0000
2000
2000
1000
1000
0800
0800
0400
0400
0200
0200
0100
0100
0000
0000
0000
ENDCHAR
STARTCHAR bracketright
ENCODING 93
SWIDTH 556 0
DWIDTH 10 0
BBX 10 18 0 -3
BITMAP
0000
0000
0000
1C00
0400
0400
0400
0400
0400
0400
0400
0400
0400
0400
1C00
0000
0000
0000
ENDCHAR
STARTCHAR asciicircum
ENCODING 94
SWIDTH 556 0
DWIDTH 10 0
BBX 10 18 0 -3
BITMAP
0000
0800
1400
2200
4100
0000
0000
0000
0000
0000
0000
0000
0000
0000
0000
0000
0000
0000
ENDCHAR
STARTCHAR underscore
ENCODING 95
SWIDTH 556 0
DWIDTH 10 0
BBX 10 18 0 -3
BITMAP
0000
0000
0000
0000
0000
0000
0000
0000
0000
0000
0000
0000
0000
0000
0000
0000
7F00
0000
ENDCHAR
STARTCHAR grave
ENCODING 96
SWIDTH 556 0
DWIDTH 10 0
BBX 10 18 0 -3
BITMAP
1000
0800
0000
0000
0000
0000
0000
0000
0000
0000
0000
0000
0000
0000
0000
0000
0000
0000
ENDCHAR
STARTCHAR a
ENCODING 97
SWIDTH 556 0
DWIDTH 10 0
BBX 10 18 0 -3
BITMAP
0000
0000
0000
0000
0000
0000
3E00
0100
0100
3F00
4100
4100
4100
4100
3F00
0000
0000
0000
ENDCHAR
STARTCHAR b
ENCODING 98
SWIDTH 556 0
DWIDTH 10 0
BBX 10 18 0 -3
BITMAP
0000
0000
0000
4000
4000
4000
7E00
4100
4100
4100
4100
4100
4100
4100
7E00
0000
0000
0000
ENDCHAR
STARTCHAR c
ENCODING 99
SWIDTH 556 0
DWIDTH 10 0
BBX 10 18 0 -3
BITMAP
0000
0000
0000
0000
0000
0000
3E00
4100
4000
4000
4000
4000
4000
4100
3E00
0000
0000
0000
ENDCHAR
STARTCHAR d
ENCODING 100
SWIDTH 556 0
DWIDTH 10 0
BBX 10 18 0 -3
BITMAP
0000
0000
0000
0100
0100
0100
3F00
4100
4100
4100
4100
4100
4100
4100
3F00
0000
0000
0000
ENDCHAR
STARTCHAR e
ENCODING 101
SWIDTH 556 0
DWIDTH 10 0
BBX 10 18 0 -3
BITMAP
0000
0000
0000
0000
0000
0000
3E00
4100
4100
4100
7F00
4000
4000
4100
3E00
0000
0000
0000
ENDCHAR
STARTCHAR f
ENCODING 102
SWIDTH 556 0
DWIDTH 10 0
BBX 10 18 0 -3
BITMAP
0000
0000
0000
0700
0800
0800
3E00
0800
0800
0800
0800
0800
0800
0800
0800
0000
0000
0000
ENDCHAR
STARTCHAR g
ENCODING 103
SWIDTH 556 0
DWIDTH 10 0
BBX 10 18 0 -3
BITMAP
0000
0000
0000
0000
0000
0000
3F00
4100
4100
4100
4100
4100
4100
4100
3F00
0100
0100
3E00
ENDCHAR
STARTCHAR h
ENCODING 104
SWIDTH 556 0
DWIDTH 10 0
BBX 10 18 0 -3
BITMAP
0000
0000
0000
4000
4000
4000
7E00
4100
4100
4100
4100
4100
4100
4100
4100
0000
0000
0000
ENDCHAR
STARTCHAR i
ENCODING 105
SWIDTH 556 0
DWIDTH 10 0
BBX 10 18 0 -3
BITMAP
0000
0000
0000
0800
0800
0000
1800
0800
0800
0800
0800
0800
0800
0800
1C00
0000
0000
0000
ENDCHAR
STARTCHAR j
ENCODING 106
SWIDTH 556 0
DWIDTH 10 0
BBX 10 18 0 -3
BITMAP
0000
0000
0000
0200
0200
0000
0600
0200
0200
0200
0200
0200
0200
0200
0200
2200
2200
1C00
ENDCHAR
STARTCHAR k
ENCODING 107
SWIDTH 556 0
DWIDTH 10 0
BBX 10 18 0 -3
BITMAP
0000
0000
0000
4000
4000
4000
4100
4200
4400
4800
7000
4800
4400
4200
4100
0000
0000
0000
ENDCHAR
STARTCHAR l
ENCODING 108
SWIDTH 556 0
DWIDTH 10 0
BBX 10 18 0 -3
BITMAP
0000
0000
0000
1800
0800
0800
0800
0800
0800
0800
0800
0800
0800
0800
1C00
0000
0000
0000
ENDCHAR
STARTCHAR m
ENCODING 109
SWIDTH 556 0
DWIDTH 10 0
BBX 10 18 0 -3
BITMAP
0000
0000
0000
0000
0000
0000
7E00
4900
4900
4900
4900
4900
4900
4900
4900
0000
0000
0000
ENDCHAR
STARTCHAR n
ENCODING 110
SWIDTH 556 0
DWIDTH 10 0
BBX 10 18 0 -3
BITMAP
0000
0000
0000
0000
0000
0000
7E00
4100
4100
4100
4100
4100
4100
4100
4100
0000
0000
0000
ENDCHAR
STARTCHAR o
ENCODING 111
SWIDTH 556 0
DWIDTH 10 0
BBX 10 18 0 -3
BITMAP
0000
0000
0000
0000
0000
0000
3E00
4100
4100
4100
4100
4100
4100
4100
3E00
0000
0000
0000
ENDCHAR
STARTCHAR p
ENCODING 112
SWIDTH 556 0
DWIDTH 10 0
BBX 10 18 0 -3
BITMAP
0000
0000
0000
0000
0000
0000
7E00
4100
4100
4100
4100
4100
4100
4100
7E00
4000
4000
4000
ENDCHAR
STARTCHAR q
ENCODING 113
SWIDTH 556 0
DWIDTH 10 0
BBX 10 18 0 -3
BITMAP
0000
0000
0000
0000
0000
0000
3F00
4100
4100
4100
4100
4100
4100
4100
3F00
0100
0100
0100
ENDCHAR
STARTCHAR r
ENCODING 114
SWIDTH 556 0
DWIDTH 10 0
BBX 10 18 0 -3
BITMAP
0000
0000
0000
0000
0000
0000
4F00
5000
6000
4000
4000
4000
4000
4000
4000
0000
0000
0000
ENDCHAR
STARTCHAR s
ENCODING 115
SWIDTH 556 0
DWIDTH 10 0
BBX 10 18 0 -3
BITMAP
0000
0000
0000
0000
0000
0000
3E00
4100
4000
4000
3E00
0100
0100
4100
3E00
0000
0000
0000
ENDCHAR
STARTCHAR t
ENCODING 116
SWIDTH 556 0
DWIDTH 10 0
BBX 10 18 0 -3
BITMAP
0000
0000
0000
0800
0800
0800
3E00
0800
0800
0800
0800
0800
0800
0800
0700
0000
0000
0000
ENDCHAR
STARTCHAR u
ENCODING 117
SWIDTH 556 0
DWIDTH 10 0
BBX 10 18 0 -3
BITMAP
0000
0000
0000
0000
0000
0000
4100
4100
4100
4100
4100
4100
4100
4100
3F00
0000
0000
0000
ENDCHAR
STARTCHAR v
ENCODING 118
SWIDTH 556 0
DWIDTH 10 0
BBX 10 18 0 -3
BITMAP
0000
0000
0000
0000
0000
0000
4100
4100
4100
2200
2200
1400
1400
0800
0800
0000
0000
0000
ENDCHAR
STARTCHAR w
ENCODING 119
SWIDTH 556 0
DWIDTH 10 0
BBX 10 18 0 -3
BITMAP
0000
0000
0000
0000
0000
0000
4100
4100
4100
4900
4900
4900
4900
4900
3E00
0000
0000
0000
ENDCHAR
STARTCHAR x
ENCODING 120
SWIDTH 556 0
DWIDTH 10 0
BBX 10 18 0 -3
BITMAP
0000
0000
0000
0000
0000
0000
4100
4100
2200
1400
0800
1400
2200
4100
4100
0000
0000
0000
ENDCHAR
STARTCHAR y
ENCODING 121
SWIDTH 556 0
DWIDTH 10 0
BBX 10 18 0 -3
BITMAP
0000
0000
0000
0000
0000
0000
4100
4100
4100
4100
4100
4100
4100
4100
3F00
0100
0100
3E00
ENDCHAR
STARTCHAR z
ENCODING 122
SWIDTH 556 0
DWIDTH 10 0
BBX 10 18 0 -3
BITMAP
0000
0000
0000
0000
0000
0000
7F00
0100
0200
0400
0800
1000
2000
4000
7F00
0000
0000
0000
ENDCHAR
STARTCHAR braceleft
ENCODING 123
SWIDTH 556 0
DWIDTH 10 0
BBX 10 18 0 -3
BITMAP
0000
0000
0000
0600
0800
0800
0800
0800
3000
0800
0800
0800
0800
0800
0600
0000
0000
0000
ENDCHAR
STARTCHAR bar
ENCODING 124
SWIDTH 556 0
DWIDTH 10 0
BBX 10 18 0 -3
BITMAP
0000
0000
0000
0800
0800
0800
0800
0800
0800
0800
0800
0800
0800
0800
0800
0000
0000
0000
ENDCHAR
STARTCHAR braceright
ENCODING 125
SWIDTH 556 0
DWIDTH 10 0
BBX 10 18 0 -3
BITMAP
0000
0000
0000
3000
0800
0800
0800
0800
0600
0800
0800
0800
0800
0800
3000
0000
0000
0000
ENDCHAR
STARTCHAR asciitilde
ENCODING 126
SWIDTH 556 0
DWIDTH 10 0
BBX 10 18 0 -3
BITMAP
0000
3100
4900
4900
4600
0000
0000
0000
0000
0000
0000
0000
0000
0000
0000
0000
0000
0000
ENDCHAR
STARTCHAR nbspace
ENCODING 160
SWIDTH 556 0
DWIDTH 10 0
BBX 10 18 0 -3
BITMAP
0000
0000
0000
0000
0000
0000
0000
0000
0000
0000
0000
0000
0000
0000
0000
0000
0000
0000
ENDCHAR
STARTCHAR exclamdown
ENCODING 161
SWIDTH 556 0
DWIDTH 10 0
BBX 10 18 0 -3
BITMAP
0000
0000
0000
0800
0800
0000
0000
0800
0800
0800
0800
0800
0800
0800
0800
0000
0000
0000
ENDCHAR
STARTCHAR cent
ENCODING 162
SWIDTH 556 0
DWIDTH 10 0
BBX 10 18 0 -3
BITMAP
0000
0000
0000
0000
0800
0800
3E00
4900
4800
4800
4800
4800
4800
4900
3E00
0800
0800
0000
ENDCHAR
STARTCHAR sterling
ENCODING 163
SWIDTH 556 0
DWIDTH 10 0
BBX 10 18 0 -3
BITMAP
0000
0000
0000
1C00
2200
2000
2000
2000
7C00
2000
2000
2000
2000
2100
7F00
0000
0000
0000
ENDCHAR
STARTCHAR currency
ENCODING 164
SWIDTH 556 0
DWIDTH 10 0
BBX 10 18 0 -3
BITMAP
0000
0000
0000
0000
4080
2100
1E00
2100
2100
2100
2100
1E00
2100
4080
0000
0000
0000
0000
ENDCHAR
STARTCHAR yen
ENCODING 165
SWIDTH 556 0
DWIDTH 10 0
BBX 10 18 0 -3
BITMAP
0000
0000
0000
4100
4100
2200
2200
1400
0800
0800
3E00
0800
3E00
0800
0800
0000
0000
0000
ENDCHAR
STARTCHAR brokenbar
ENCODING 166
SWIDTH 556 0
DWIDTH 10 0
BBX 10 18 0 -3
BITMAP
0000
0000
0000
0800
0800
0800
0800
0800
0000
0000
0800
0800
0800
0800
0800
0000
0000
0000
ENDCHAR
STARTCHAR section
ENCODING 167
SWIDTH 556 0
DWIDTH 10 0
BBX 10 18 0 -3
BITMAP
0000
0000
1C00
2200
2000
1800
2400
2200
2200
2200
1200
0C00
0200
2200
1C00
0000
0000
0000
ENDCHAR
STARTCHAR dieresis
ENCODING 168
SWIDTH 556 0
DWIDTH 10 0
BBX 10 18 0 -3
BITMAP
2200
2200
0000
0000
0000
0000
0000
0000
0000
0000
0000
0000
0000
0000
0000
0000
0000
0000
ENDCHAR
STARTCHAR copyright
ENCODING 169
SWIDTH 556 0
DWIDTH 10 0
BBX 10 18 0 -3
BITMAP
0000
0000
0000
0000
3E00
4100
9C80
A280
A080
A080
A280
9C80
4100
3E00
0000
0000
0000
0000
ENDCHAR
STARTCHAR ordfeminine
ENCODING 170
SWIDTH 556 0
DWIDTH 10 0
BBX 10 18 0 -3
BITMAP
0000
1E00
0100
1F00
2100
2100
1F00
0000
3F00
0000
0000
0000
0000
0000
0000
0000
0000
0000
ENDCHAR
STARTCHAR guillemotleft
ENCODING 171
SWIDTH 556 0
DWIDTH 10 0
BBX 10 18 0 -3
BITMAP
0000
0000
0000
0000
0000
0000
0880
1100
2200
4400
8800
4400
2200
1100
0880
0000
0000
0000
ENDCHAR
STARTCHAR logicalnot
ENCODING 172
SWIDTH 556 0
DWIDTH 10 0
BBX 10 18 0 -3
BITMAP
0000
0000
0000
0000
0000
0000
0000
7F00
0100
0100
0100
0100
0000
0000
0000
0000
0000
0000
ENDCHAR
STARTCHAR softhyphen
ENCODING 173
SWIDTH 556 0
DWIDTH 10 0
BBX 10 18 0 -3
BITMAP
0000
0000
0000
0000
0000
0000
0000
0000
3E00
0000
0000
0000
0000
0000
0000
0000
0000
0000
ENDCHAR
STARTCHAR registered
ENCODING 174
SWIDTH 556 0
DWIDTH 10 0
BBX 10 18 0 -3
BITMAP
0000
0000
0000
0000
3E00
4100
BC80
A280
A280
BC80
A480
A280
4100
3E00
0000
0000
0000
0000
ENDCHAR
STARTCHAR macron
ENCODING 175
SWIDTH 556 0
DWIDTH 10 0
BBX 10 18 0 -3
BITMAP
0000
3E00
0000
0000
0000
0000
0000
0000
0000
0000
0000
0000
0000
0000
0000
0000
0000
0000
ENDCHAR
STARTCHAR degree
ENCODING 176
SWIDTH 556 0
DWIDTH 10 0
BBX 10 18 0 -3
BITMAP
0000
1C00
2200
2200
2200
1C00
0000
0000
0000
0000
0000
0000
0000
0000
0000
0000
0000
0000
ENDCHAR
STARTCHAR plusminus
ENCODING 177
SWIDTH 556 0
DWIDTH 10 0
BBX 10 18 0 -3
BITMAP
0000
0000
0000
0000
0000
0800
0800
0800
7F00
0800
0800
0800
0000
0000
7F00
0000
0000
0000
ENDCHAR
STARTCHAR twosuperior
ENCODING 178
SWIDTH 556 0
DWIDTH 10 0
BBX 10 18 0 -3
BITMAP
0000
1C00
2200
2200
0400
0800
1000
3E00
0000
0000
0000
0000
0000
0000
0000
0000
0000
0000
ENDCHAR
STARTCHAR threesuperior
ENCODING 179
SWIDTH 556 0
DWIDTH 10 0
BBX 10 18 0 -3
BITMAP
0000
1C00
2200
0200
0C00
0200
2200
1C00
0000
0000
0000
0000
0000
0000
0000
0000
0000
0000
ENDCHAR
STARTCHAR acute
ENCODING 180
SWIDTH 556 0
DWIDTH 10 0
BBX 10 18 0 -3
BITMAP
0400
0800
0000
0000
0000
0000
0000
0000
0000
0000
0000
0000
0000
0000
0000
0000
0000
0000
ENDCHAR
STARTCHAR mu
ENCODING 181
SWIDTH 556 0
DWIDTH 10 0
BBX 10 18 0 -3
BITMAP
0000
0000
0000
0000
0000
0000
4100
4100
4100
4100
4100
4100
4100
4300
7D00
4000
4000
4000
ENDCHAR
STARTCHAR paragraph
ENCODING 182
SWIDTH 556 0
DWIDTH 10 0
BBX 10 18 0 -3
BITMAP
0000
0000
0000
3F00
4900
4900
4900
4900
4900
3900
0900
0900
0900
0900
0900
0000
0000
0000
ENDCHAR
STARTCHAR periodcentered
ENCODING 183
SWIDTH 556 0
DWIDTH 10 0
BBX 10 18 0 -3
BITMAP
0000
0000
0000
0000
0000
0000
0000
0000
0800
0800
0000
0000
0000
0000
0000
0000
0000
0000
ENDCHAR
STARTCHAR cedilla
ENCODING 184
SWIDTH 556 0
DWIDTH 10 0
BBX 10 18 0 -3
BITMAP
0000
0000
0000
0000
0000
0000
0000
0000
0000
0000
0000
0000
0000
0000
0000
0800
0800
1000
ENDCHAR
STARTCHAR onesuperior
ENCODING 185
SWIDTH 556 0
DWIDTH 10 0
BBX 10 18 0 -3
BITMAP
0000
0800
1800
0800
0800
0800
0800
1C00
0000
0000
0000
0000
0000
0000
0000
0000
0000
0000
ENDCHAR
STARTCHAR ordmasculine
ENCODING 186
SWIDTH 556 0
DWIDTH 10 0
BBX 10 18 0 -3
BITMAP
0000
1E00
2100
2100
2100
2100
1E00
0000
3F00
0000
0000
0000
0000
0000
0000
0000
0000
0000
ENDCHAR
STARTCHAR guillemotright
ENCODING 187
SWIDTH 556 0
DWIDTH 10 0
BBX 10 18 0 -3
BITMAP
0000
0000
0000
0000
0000
0000
8800
4400
2200
1100
0880
1100
2200
4400
8800
0000
0000
0000
ENDCHAR
STARTCHAR onequarter
ENCODING 188
SWIDTH 556 0
DWIDTH 10 0
BBX 10 18 0 -3
BITMAP
0000
0000
2000
6000
2080
2100
2200
2400
0800
1100
2300
4500
8900
0F00
0100
0100
0000
0000
ENDCHAR
STARTCHAR onehalf
ENCODING 189
SWIDTH 556 0
DWIDTH 10 0
BBX 10 18 0 -3
BITMAP
0000
0000
2000
6000
2080
2100
2200
2400
0800
1000
2600
4900
8100
0200
0400
0F00
0000
0000
ENDCHAR
STARTCHAR threequarters
ENCODING 190
SWIDTH 556 0
DWIDTH 10 0
BBX 10 18 0 -3
BITMAP
0000
0000
E000
1000
6080
1100
1200
E400
0800
1100
2300
4500
8900
0F00
0100
0100
0000
0000
ENDCHAR
STARTCHAR questiondown
ENCODING 191
SWIDTH 556 0
DWIDTH 10 0
BBX 10 18 0 -3
BITMAP
0000
0000
0000
0800
0800
0000
0800
0800
1000
2000
4000
4100
4100
2200
1C00
0000
0000
0000
ENDCHAR
STARTCHAR Agrave
ENCODING 192
SWIDTH 556 0
DWIDTH 10 0
BBX 10 18 0 -3
BITMAP
1000
0800
0000
3E00
4100
4100
4100
4100
4100
7F00
4100
4100
4100
4100
4100
0000
0000
0000
ENDCHAR
STARTCHAR Aacute
ENCODING 193
SWIDTH 556 0
DWIDTH 10 0
BBX 10 18 0 -3
BITMAP
0400
0800
0000
3E00
4100
4100
4100
4100
4100
7F00
4100
4100
4100
4100
4100
0000
0000
0000
ENDCHAR
STARTCHAR Acircumflex
ENCODING 194
SWIDTH 556 0
DWIDTH 10 0
BBX 10 18 0 -3
BITMAP
1C00
2200
0000
3E00
4100
4100
4100
4100
4100
7F00
4100
4100
4100
4100
4100
0000
0000
0000
ENDCHAR
STARTCHAR Atilde
ENCODING 195
SWIDTH 556 0
DWIDTH 10 0
BBX 10 18 0 -3
BITMAP
3300
4C00
0000
3E00
4100
4100
4100
4100
4100
7F00
4100
4100
4100
4100
4100
0000
0000
0000
ENDCHAR
STARTCHAR Adieresis
ENCODING 196
SWIDTH 556 0
DWIDTH 10 0
BBX 10 18 0 -3
BITMAP
2200
2200
0000
3E00
4100
4100
4100
4100
4100
7F00
4100
4100
4100
4100
4100
0000
0000
0000
ENDCHAR
STARTCHAR Aring
ENCODING 197
SWIDTH 556 0
DWIDTH 10 0
BBX 10 18 0 -3
BITMAP
1C00
2200
1C00
3E00
4100
4100
4100
4100
4100
7F00
4100
4100
4100
4100
4100
0000
0000
0000
ENDCHAR
STARTCHAR AE
ENCODING 198
SWIDTH 556 0
DWIDTH 10 0
BBX 10 18 0 -3
BITMAP
0000
0000
0000
7F80
8800
8800
8800
8800
FF00
8800
8800
8800
8800
8800
8F80
0000
0000
0000
ENDCHAR
STARTCHAR Ccedilla
ENCODING 199
SWIDTH 556 0
DWIDTH 10 0
BBX 10 18 0 -3
BITMAP
0000
0000
0000
3E00
4100
4100
4000
4000
4000
4000
4000
4000
4100
4100
3E00
0800
0800
1000
ENDCHAR
STARTCHAR Egrave
ENCODING 200
SWIDTH 556 0
DWIDTH 10 0
BBX 10 18 0 -3
BITMAP
1000
0800
0000
7F00
4000
4000
4000
4000
7C00
4000
4000
4000
4000
4000
7F00
0000
0000
0000
ENDCHAR
STARTCHAR Eacute
ENCODING 201
SWIDTH 556 0
DWIDTH 10 0
BBX 10 18 0 -3
BITMAP
0400
0800
0000
7F00
4000
4000
4000
4000
7C00
4000
4000
4000
4000
4000
7F00
0000
0000
0000
ENDCHAR
STARTCHAR Ecircumflex
ENCODING 202
SWIDTH 556 0
DWIDTH 10 0
BBX 10 18 0 -3
BITMAP
1C00
2200
0000
7F00
4000
4000
4000
4000
7C00
4000
4000
4000
4000
4000
7F00
0000
0000
0000
ENDCHAR
STARTCHAR Edieresis
ENCODING 203
SWIDTH 556 0
DWIDTH 10 0
BBX 10 18 0 -3
BITMAP
2200
2200
0000
7F00
4000
4000
4000
4000
7C00
4000
4000
4000
4000
4000
7F00
0000
0000
0000
ENDCHAR
STARTCHAR Igrave
ENCODING 204
SWIDTH 556 0
DWIDTH 10 0
BBX 10 18 0 -3
BITMAP
1000
0800
0000
1C00
0800
0800
0800
0800
0800
0800
0800
0800
0800
0800
1C00
0000
0000
0000
ENDCHAR
STARTCHAR Iacute
ENCODING 205
SWIDTH 556 0
DWIDTH 10 0
BBX 10 18 0 -3
BITMAP
0400
0800
0000
1C00
0800
0800
0800
0800
0800
0800
0800
0800
0800
0800
1C00
0000
0000
0000
ENDCHAR
STARTCHAR Icircumflex
ENCODING 206
SWIDTH 556 0
DWIDTH 10 0
BBX 10 18 0 -3
BITMAP
1C00
2200
0000
1C00
0800
0800
0800
0800
0800
0800
0800
0800
0800
0800
1C00
0000
0000
0000
ENDCHAR
STARTCHAR Idieresis
ENCODING 207
SWIDTH 556 0
DWIDTH 10 0
BBX 10 18 0 -3
BITMAP
2200
2200
0000
1C00
0800
0800
0800
0800
0800
0800
0800
0800
0800
0800
1C00
0000
0000
0000
ENDCHAR
STARTCHAR Eth
ENCODING 208
SWIDTH 556 0
DWIDTH 10 0
BBX 10 18 0 -3
BITMAP
0000
0000
0000
7C00
4200
4100
4100
4100
F900
4100
4100
4100
4100
4200
7C00
0000
0000
0000
ENDCHAR
STARTCHAR Ntilde
ENCODING 209
SWIDTH 556 0
DWIDTH 10 0
BBX 10 18 0 -3
BITMAP
3300
4C00
0000
4100
4100
4100
6100
5100
4900
4500
4300
4100
4100
4100
4100
0000
0000
0000
ENDCHAR
STARTCHAR Ograve
ENCODING 210
SWIDTH 556 0
DWIDTH 10 0
BBX 10 18 0 -3
BITMAP
1000
0800
0000
3E00
4100
4100
4100
4100
4100
4100
4100
4100
4100
4100
3E00
0000
0000
0000
ENDCHAR
STARTCHAR Oacute
ENCODING 211
SWIDTH 556 0
DWIDTH 10 0
BBX 10 18 0 -3
BITMAP
0400
0800
0000
3E00
4100
4100
4100
4100
4100
4100
4100
4100
4100
4100
3E00
0000
0000
0000
ENDCHAR
STARTCHAR Ocircumflex
ENCODING 212
SWIDTH 556 0
DWIDTH 10 0
BBX 10 18 0 -3
BITMAP
1C00
2200
0000
3E00
4100
4100
4100
4100
4100
4100
4100
4100
4100
4100
3E00
0000
0000
0000
ENDCHAR
STARTCHAR Otilde
ENCODING 213
SWIDTH 556 0
DWIDTH 10 0
BBX 10 18 0 -3
BITMAP
3300
4C00
0000
3E00
4100
4100
4100
4100
4100
4100
4100
4100
4100
4100
3E00
0000
0000
0000
ENDCHAR
STARTCHAR Odieresis
ENCODING 214
SWIDTH 556 0
DWIDTH 10 0
BBX 10 18 0 -3
BITMAP
2200
2200
0000
3E00
4100
4100
4100
4100
4100
4100
4100
4100
4100
4100
3E00
0000
0000
0000
ENDCHAR
STARTCHAR multiply
ENCODING 215
SWIDTH 556 0
DWIDTH 10 0
BBX 10 18 0 -3
BITMAP
0000
0000
0000
0000
0000
4100
2200
1400
0800
1400
2200
4100
0000
0000
0000
0000
0000
0000
ENDCHAR
STARTCHAR Oslash
ENCODING 216
SWIDTH 556 0
DWIDTH 10 0
BBX 10 18 0 -3
BITMAP
0000
0000
0000
3E00
4180
4100
4300
4500
4900
5100
6100
4100
C100
4100
3E00
0000
0000
0000
ENDCHAR
STARTCHAR Ugrave
ENCODING 217
SWIDTH 556 0
DWIDTH 10 0
BBX 10 18 0 -3
BITMAP
1000
0800
0000
4100
4100
4100
4100
4100
4100
4100
4100
4100
4100
4100
3E00
0000
0000
0000
ENDCHAR
STARTCHAR Uacute
ENCODING 218
SWIDTH 556 0
DWIDTH 10 0
BBX 10 18 0 -3
BITMAP
0400
0800
0000
4100
4100
4100
4100
4100
4100
4100
4100
4100
4100
4100
3E00
0000
0000
0000
ENDCHAR
STARTCHAR Ucircumflex
ENCODING 219
SWIDTH 556 0
DWIDTH 10 0
BBX 10 18 0 -3
BITMAP
1C00
2200
0000
4100
4100
4100
4100
4100
4100
4100
4100
4100
4100
4100
3E00
0000
0000
0000
ENDCHAR
STARTCHAR Udieresis
ENCODING 220
SWIDTH 556 0
DWIDTH 10 0
BBX 10 18 0 -3
BITMAP
2200
2200
0000
4100
4100
4100
4100
4100
4100
4100
4100
4100
4100
4100
3E00
0000
0000
0000
ENDCHAR
STARTCHAR Yacute
ENCODING 221
SWIDTH 556 0
DWIDTH 10 0
BBX 10 18 0 -3
BITMAP
0400
0800
0000
4100
4100
2200
2200
1400
1400
0800
0800
0800
0800
0800
0800
0000
0000
0000
ENDCHAR
STARTCHAR Thorn
ENCODING 222
SWIDTH 556 0
DWIDTH 10 0
BBX 10 18 0 -3
BITMAP
0000
0000
0000
4000
4000
7E00
4100
4100
4100
4100
4100
7E00
4000
4000
4000
0000
0000
0000
ENDCHAR
STARTCHAR germandbls
ENCODING 223
SWIDTH 556 0
DWIDTH 10 0
BBX 10 18 0 -3
BITMAP
0000
0000
0000
3C00
4200
4200
4200
4400
7E00
4100
4100
4100
4100
6100
5E00
0000
0000
0000
ENDCHAR
STARTCHAR agrave
ENCODING 224
SWIDTH 556 0
DWIDTH 10 0
BBX 10 18 0 -3
BITMAP
0000
0000
0000
1000
0800
0000
3E00
0100
0100
3F00
4100
4100
4100
4100
3F00
0000
0000
0000
ENDCHAR
STARTCHAR aacute
ENCODING 225
SWIDTH 556 0
DWIDTH 10 0
BBX 10 18 0 -3
BITMAP
0000
0000
0000
0400
0800
0000
3E00
0100
0100
3F00
4100
4100
4100
4100
3F00
0000
0000
0000
ENDCHAR
STARTCHAR acircumflex
ENCODING 226
SWIDTH 556 0
DWIDTH 10 0
BBX 10 18 0 -3
BITMAP
0000
0000
0000
1C00
2200
0000
3E00
0100
0100
3F00
4100
4100
4100
4100
3F00
0000
0000
0000
ENDCHAR
STARTCHAR atilde
ENCODING 227
SWIDTH 556 0
DWIDTH 10 0
BBX 10 18 0 -3
BITMAP
0000
0000
0000
3300
4C00
0000
3E00
0100
0100
3F00
4100
4100
4100
4100
3F00
0000
0000
0000
ENDCHAR
STARTCHAR adieresis
ENCODING 228
SWIDTH 556 0
DWIDTH 10 0
BBX 10 18 0 -3
BITMAP
0000
0000
0000
2200
2200
0000
3E00
0100
0100
3F00
4100
4100
4100
4100
3F00
0000
0000
0000
ENDCHAR
STARTCHAR aring
ENCODING 229
SWIDTH 556 0
DWIDTH 10 0
BBX 10 18 0 -3
BITMAP
0000
0000
0000
1C00
2200
1C00
3E00
0100
0100
3F00
4100
4100
4100
4100
3F00
0000
0000
0000
ENDCHAR
STARTCHAR ae
ENCODING 230
SWIDTH 556 0
DWIDTH 10 0
BBX 10 18 0 -3
BITMAP
0000
0000
0000
0000
0000
0000
7700
0880
0880
7880
8F80
8800
8800
8880
7700
0000
0000
0000
ENDCHAR
STARTCHAR ccedilla
ENCODING 231
SWIDTH 556 0
DWIDTH 10 0
BBX 10 18 0 -3
BITMAP
0000
0000
0000
0000
0000
0000
3E00
4100
4000
4000
4000
4000
4000
4100
3E00
0800
0800
1000
ENDCHAR
STARTCHAR egrave
ENCODING 232
SWIDTH 556 0
DWIDTH 10 0
BBX 10 18 0 -3
BITMAP
0000
0000
0000
1000
0800
0000
3E00
4100
4100
4100
7F00
4000
4000
4100
3E00
0000
0000
0000
ENDCHAR
STARTCHAR eacute
ENCODING 233
SWIDTH 556 0
DWIDTH 10 0
BBX 10 18 0 -3
BITMAP
0000
0000
0000
0400
0800
0000
3E00
4100
4100
4100
7F00
4000
4000
4100
3E00
0000
0000
0000
ENDCHAR
STARTCHAR ecircumflex
ENCODING 234
SWIDTH 556 0
DWIDTH 10 0
BBX 10 18 0 -3
BITMAP
0000
0000
0000
1C00
2200
0000
3E00
4100
4100
4100
7F00
4000
4000
4100
3E00
0000
0000
0000
ENDCHAR
STARTCHAR edieresis
ENCODING 235
SWIDTH 556 0
DWIDTH 10 0
BBX 10 18 0 -3
BITMAP
0000
0000
0000
2200
2200
0000
3E00
4100
4100
4100
7F00
4000
4000
4100
3E00
0000
0000
0000
ENDCHAR
STARTCHAR igrave
ENCODING 236
SWIDTH 556 0
DWIDTH 10 0
BBX 10 18 0 -3
BITMAP
0000
0000
0000
1000
0800
0000
1800
0800
0800
0800
0800
0800
0800
0800
1C00
0000
0000
0000
ENDCHAR
STARTCHAR iacute
ENCODING 237
SWIDTH 556 0
DWIDTH 10 0
BBX 10 18 0 -3
BITMAP
0000
0000
0000
0400
0800
0000
1800
0800
0800
0800
0800
0800
0800
0800
1C00
0000
0000
0000
ENDCHAR
STARTCHAR icircumflex
ENCODING 238
SWIDTH 556 0
DWIDTH 10 0
BBX 10 18 0 -3
BITMAP
0000
0000
0000
1C00
2200
0000
1800
0800
0800
0800
0800
0800
0800
0800
1C00
0000
0000
0000
ENDCHAR
STARTCHAR idieresis
ENCODING 239
SWIDTH 556 0
DWIDTH 10 0
BBX 10 18 0 -3
BITMAP
0000
0000
0000
2200
2200
0000
1800
0800
0800
0800
0800
0800
0800
0800
1C00
0000
0000
0000
ENDCHAR
STARTCHAR eth
ENCODING 240
SWIDTH 556 0
DWIDTH 10 0
BBX 10 18 0 -3
BITMAP
0000
0000
0000
2C00
1000
6800
0400
3E00
4100
4100
4100
4100
4100
4100
3E00
0000
0000
0000
ENDCHAR
STARTCHAR ntilde
ENCODING 241
SWIDTH 556 0
DWIDTH 10 0
BBX 10 18 0 -3
BITMAP
0000
0000
0000
3300
4C00
0000
7E00
4100
4100
4100
4100
4100
4100
4100
4100
0000
0000
0000
ENDCHAR
STARTCHAR ograve
ENCODING 242
SWIDTH 556 0
DWIDTH 10 0
BBX 10 18 0 -3
BITMAP
0000
0000
0000
1000
0800
0000
3E00
4100
4100
4100
4100
4100
4100
4100
3E00
0000
0000
0000
ENDCHAR
STARTCHAR oacute
ENCODING 243
SWIDTH 556 0
DWIDTH 10 0
BBX 10 18 0 -3
BITMAP
0000
0000
0000
0400
0800
0000
3E00
4100
4100
4100
4100
4100
4100
4100
3E00
0000
0000
0000
ENDCHAR
STARTCHAR ocircumflex
ENCODING 244
SWIDTH 556 0
DWIDTH 10 0
BBX 10 18 0 -3
BITMAP
0000
0000
0000
1C00
2200
0000
3E00
4100
4100
4100
4100
4100
4100
4100
3E00
0000
0000
0000
ENDCHAR
STARTCHAR otilde
ENCODING 245
SWIDTH 556 0
DWIDTH 10 0
BBX 10 18 0 -3
BITMAP
0000
0000
0000
3300
4C00
0000
3E00
4100
4100
4100
4100
4100
4100
4100
3E00
0000
0000
0000
ENDCHAR
STARTCHAR odieresis
ENCODING 246
SWIDTH 556 0
DWIDTH 10 0
BBX 10 18 0 -3
BITMAP
0000
0000
0000
2200
2200
0000
3E00
4100
4100
4100
4100
4100
4100
4100
3E00
0000
0000
0000
ENDCHAR
STARTCHAR divide
ENCODING 247
SWIDTH 556 0
DWIDTH 10 0
BBX 10 18 0 -3
BITMAP
0000
0000
0000
0000
0800
0800
0000
0000
7F00
0000
0000
0800
0800
0000
0000
0000
0000
0000
ENDCHAR
STARTCHAR oslash
ENCODING 248
SWIDTH 556 0
DWIDTH 10 0
BBX 10 18 0 -3
BITMAP
0000
0000
0000
0000
0000
0000
3E80
4100
4300
4500
4900
5100
6100
4100
BE00
0000
0000
0000
ENDCHAR
STARTCHAR ugrave
ENCODING 249
SWIDTH 556 0
DWIDTH 10 0
BBX 10 18 0 -3
BITMAP
0000
0000
0000
1000
0800
0000
4100
4100
4100
4100
4100
4100
4100
4100
3F00
0000
0000
0000
ENDCHAR
STARTCHAR uacute
ENCODING 250
SWIDTH 556 0
DWIDTH 10 0
BBX 10 18 0 -3
BITMAP
0000
0000
0000
0400
0800
0000
4100
4100
4100
4100
4100
4100
4100
4100
3F00
0000
0000
0000
ENDCHAR
STARTCHAR ucircumflex
ENCODING 251
SWIDTH 556 0
DWIDTH 10 0
BBX 10 18 0 -3
BITMAP
0000
0000
0000
1C00
2200
0000
4100
4100
4100
4100
4100
4100
4100
4100
3F00
0000
0000
0000
ENDCHAR
STARTCHAR udieresis
ENCODING 252
SWIDTH 556 0
DWIDTH 10 0
BBX 10 18 0 -3
BITMAP
0000
0000
0000
2200
2200
0000
4100
4100
4100
4100
4100
4100
4100
4100
3F00
0000
0000
0000
ENDCHAR
STARTCHAR yacute
ENCODING 253
SWIDTH 556 0
DWIDTH 10 0
BBX 10 18 0 -3
BITMAP
0000
0000
0000
0400
0800
0000
4100
4100
4100
4100
4100
4100
4100
4100
3F00
0100
0100
3E00
ENDCHAR
STARTCHAR thorn
ENCODING 254
SWIDTH 556 0
DWIDTH 10 0
BBX 10 18 0 -3
BITMAP
0000
0000
0000
4000
4000
4000
7E00
4100
4100
4100
4100
4100
4100
4100
7E00
4000
4000
4000
ENDCHAR
STARTCHAR ydieresis
ENCODING 255
SWIDTH 556 0
DWIDTH 10 0
BBX 10 18 0 -3
BITMAP
0000
0000
0000
2200
2200
0000
4100
4100
4100
4100
4100
4100
4100
4100
3F00
0100
0100
3E00
ENDCHAR
ENDFONT

