STARTFONT 2.1
FONT -xos4-Terminus-Medium-R-Normal--28-280-72-72-C-140-ISO10646-1
SIZE 28 72 72
FONTBOUNDINGBOX 14 28 0 -6
STARTPROPERTIES 20
FAMILY_NAME "Terminus"
FOUNDRY "xos4"
SETWIDTH_NAME "Normal"
ADD_STYLE_NAME ""
COPYRIGHT "Copyright (C) 2019 Dimitar Toshkov Zhekov"
NOTICE "Licensed under the SIL Open Font License, Version 1.1"
WEIGHT_NAME "Medium"
SLANT "R"
PIXEL_SIZE 28
POINT_SIZE 280
RESOLUTION_X 72
RESOLUTION_Y 72
SPACING "C"
AVERAGE_WIDTH 140
CHARSET_REGISTRY "ISO10646"
CHARSET_ENCODING "1"
MIN_SPACE 14
FONT_ASCENT 22
FONT_DESCENT 6
DEFAULT_CHAR 65533
ENDPROPERTIES
CHARS 1354
STARTCHAR char0
ENCODING 0
SWIDTH 500 0
DWIDTH 14 0
BBX 14 28 0 -6
BITMAP
0000
0000
0000
0000
78F0
6030
6030
6030
0000
0000
0000
6030
6030
6030
6030
0000
0000
0000
6030
6030
6030
78F0
0000
0000
0000
0000
0000
0000
ENDCHAR
STARTCHAR space
ENCODING 32
SWIDTH 500 0
DWIDTH 14 0
BBX 14 28 0 -6
BITMAP
0000
0000
0000
0000
0000
0000
0000
0000
0000
0000
0000
0000
0000
0000
0000
0000
0000
0000
0000
0000
0000
0000
0000
0000
0000
0000
0000
0000
ENDCHAR
STARTCHAR exclam
ENCODING 33
SWIDTH 500 0
DWIDTH 14 0
BBX 14 28 0 -6
BITMAP
0000
0000
0000
0000
0300
0300
0300
0300
0300
0300
0300
0300
0300
0300
0300
0300
0000
0000
0300
0300
0300
0300
0000
0000
0000
0000
0000
0000
ENDCHAR
STARTCHAR quotedbl
ENCODING 34
SWIDTH 500 0
DWIDTH 14 0
BBX 14 28 0 -6
BITMAP
0000
0000
18C0
18C0
18C0
18C0
18C0
18C0
0000
0000
0000
0000
0000
0000
0000
0000
0000
0000
0000
0000
0000
0000
0000
0000
0000
0000
0000
0000
ENDCHAR
STARTCHAR numbersign
ENCODING 35
SWIDTH 500 0
DWIDTH 14 0
BBX 14 28 0 -6
BITMAP
0000
0000
0000
0000
18C0
18C0
18C0
18C0
18C0
7FF0
18C0
18C0
18C0
18C0
18C0
18C0
7FF0
18C0
18C0
18C0
18C0
18C0
0000
0000
0000
0000
0000
0000
ENDCHAR
STARTCHAR dollar
ENCODING 36
SWIDTH 500 0
DWIDTH 14 0
BBX 14 28 0 -6
BITMAP
0000
0000
0300
0300
0300
1FE0
3330
6318
6300
6300
6300
6300
3300
1FE0
0330
0318
0318
0318
0318
6318
3330
1FE0
0300
0300
0300
0000
0000
0000
ENDCHAR
STARTCHAR percent
ENCODING 37
SWIDTH 500 0
DWIDTH 14 0
BBX 14 28 0 -6
BITMAP
0000
0000
0000
0000
3C30
6630
6660
6660
3CC0
00C0
0180
0180
0300
0300
0600
0600
0C00
0CF0
1998
1998
3198
30F0
0000
0000
0000
0000
0000
0000
ENDCHAR
STARTCHAR ampersand
ENCODING 38
SWIDTH 500 0
DWIDTH 14 0
BBX 14 28 0 -6
BITMAP
0000
0000
0000
0000
0F00
1980
30C0
30C0
30C0
30C0
1980
0F00
0E00
1B18
3198
60F0
6060
6060
6060
60F0
3198
1F18
0000
0000
0000
0000
0000
0000
ENDCHAR
STARTCHAR quotesingle
ENCODING 39
SWIDTH 500 0
DWIDTH 14 0
BBX 14 28 0 -6
BITMAP
0000
0000
0300
0300
0300
0300
0300
0300
0000
0000
0000
0000
0000
0000
0000
0000
0000
0000
0000
0000
0000
0000
0000
0000
0000
0000
0000
0000
ENDCHAR
STARTCHAR parenleft
ENCODING 40
SWIDTH 500 0
DWIDTH 14 0
BBX 14 28 0 -6
BITMAP
0000
0000
0000
0000
0180
0300
0600
0600
0C00
0C00
0C00
0C00
0C00
0C00
0C00
0C00
0C00
0C00
0600
0600
0300
0180
0000
0000
0000
0000
0000
0000
ENDCHAR
STARTCHAR parenright
ENCODING 41
SWIDTH 500 0
DWIDTH 14 0
BBX 14 28 0 -6
BITMAP
0000
0000
0000
0000
0C00
0600
0300
0300
0180
0180
0180
0180
0180
0180
0180
0180
0180
0180
0300
0300
0600
0C00
0000
0000
0000
0000
0000
0000
ENDCHAR
STARTCHAR asterisk
ENCODING 42
SWIDTH 500 0
DWIDTH 14 0
BBX 14 28 0 -6
BITMAP
0000
0000
0000
0000
0000
0000
0000
0000
3030
1860
0CC0
0780
0300
7FF8
0300
0780
0CC0
1860
3030
0000
0000
0000
0000
0000
0000
0000
0000
0000
ENDCHAR
STARTCHAR plus
ENCODING 43
SWIDTH 500 0
DWIDTH 14 0
BBX 14 28 0 -6
BITMAP
0000
0000
0000
0000
0000
0000
0000
0000
0300
0300
0300
0300
0300
7FF8
0300
0300
0300
0300
0300
0000
0000
0000
0000
0000
0000
0000
0000
0000
ENDCHAR
STARTCHAR comma
ENCODING 44
SWIDTH 500 0
DWIDTH 14 0
BBX 14 28 0 -6
BITMAP
0000
0000
0000
0000
0000
0000
0000
0000
0000
0000
0000
0000
0000
0000
0000
0000
0000
0000
0300
0300
0300
0300
0600
0C00
0000
0000
0000
0000
ENDCHAR
STARTCHAR hyphen
ENCODING 45
SWIDTH 500 0
DWIDTH 14 0
BBX 14 28 0 -6
BITMAP
0000
0000
0000
0000
0000
0000
0000
0000
0000
0000
0000
0000
0000
7FF0
0000
0000
0000
0000
0000
0000
0000
0000
0000
0000
0000
0000
0000
0000
ENDCHAR
STARTCHAR period
ENCODING 46
SWIDTH 500 0
DWIDTH 14 0
BBX 14 28 0 -6
BITMAP
0000
0000
0000
0000
0000
0000
0000
0000
0000
0000
0000
0000
0000
0000
0000
0000
0000
0000
0300
0300
0300
0300
0000
0000
0000
0000
0000
0000
ENDCHAR
STARTCHAR slash
ENCODING 47
SWIDTH 500 0
DWIDTH 14 0
BBX 14 28 0 -6
BITMAP
0000
0000
0000
0000
0030
0030
0060
0060
00C0
00C0
0180
0180
0300
0300
0600
0600
0C00
0C00
1800
1800
3000
3000
0000
0000
0000
0000
0000
0000
ENDCHAR
STARTCHAR zero
ENCODING 48
SWIDTH 500 0
DWIDTH 14 0
BBX 14 28 0 -6
BITMAP
0000
0000
0000
0000
1FC0
3060
6030
6030
6030
6070
60F0
61B0
6330
6630
6C30
7830
7030
6030
6030
6030
3060
1FC0
0000
0000
0000
0000
0000
0000
ENDCHAR
STARTCHAR one
ENCODING 49
SWIDTH 500 0
DWIDTH 14 0
BBX 14 28 0 -6
BITMAP
0000
0000
0000
0000
0300
0700
0F00
1B00
0300
0300
0300
0300
0300
0300
0300
0300
0300
0300
0300
0300
0300
1FE0
0000
0000
0000
0000
0000
0000
ENDCHAR
STARTCHAR two
ENCODING 50
SWIDTH 500 0
DWIDTH 14 0
BBX 14 28 0 -6
BITMAP
0000
0000
0000
0000
1FC0
3060
6030
6030
6030
6030
0030
0060
00C0
0180
0300
0600
0C00
1800
3000
6000
6000
7FF0
0000
0000
0000
0000
0000
0000
ENDCHAR
STARTCHAR three
ENCODING 51
SWIDTH 500 0
DWIDTH 14 0
BBX 14 28 0 -6
BITMAP
0000
0000
0000
0000
1FC0
3060
6030
0030
0030
0030
0030
0060
0FC0
0060
0030
0030
0030
0030
0030
6030
3060
1FC0
0000
0000
0000
0000
0000
0000
ENDCHAR
STARTCHAR four
ENCODING 52
SWIDTH 500 0
DWIDTH 14 0
BBX 14 28 0 -6
BITMAP
0000
0000
0000
0000
0030
0070
00F0
01B0
0330
0630
0C30
1830
3030
6030
6030
6030
6030
7FF0
0030
0030
0030
0030
0000
0000
0000
0000
0000
0000
ENDCHAR
STARTCHAR five
ENCODING 53
SWIDTH 500 0
DWIDTH 14 0
BBX 14 28 0 -6
BITMAP
0000
0000
0000
0000
7FF0
6000
6000
6000
6000
6000
6000
7FC0
0060
0030
0030
0030
0030
0030
0030
6030
3060
1FC0
0000
0000
0000
0000
0000
0000
ENDCHAR
STARTCHAR six
ENCODING 54
SWIDTH 500 0
DWIDTH 14 0
BBX 14 28 0 -6
BITMAP
0000
0000
0000
0000
1FE0
3000
6000
6000
6000
6000
6000
7FC0
6060
6030
6030
6030
6030
6030
6030
6030
3060
1FC0
0000
0000
0000
0000
0000
0000
ENDCHAR
STARTCHAR seven
ENCODING 55
SWIDTH 500 0
DWIDTH 14 0
BBX 14 28 0 -6
BITMAP
0000
0000
0000
0000
7FF0
6030
6030
6030
6030
0060
0060
00C0
00C0
0180
0180
0300
0300
0300
0300
0300
0300
0300
0000
0000
0000
0000
0000
0000
ENDCHAR
STARTCHAR eight
ENCODING 56
SWIDTH 500 0
DWIDTH 14 0
BBX 14 28 0 -6
BITMAP
0000
0000
0000
0000
1FC0
3060
6030
6030
6030
6030
6030
3060
1FC0
3060
6030
6030
6030
6030
6030
6030
3060
1FC0
0000
0000
0000
0000
0000
0000
ENDCHAR
STARTCHAR nine
ENCODING 57
SWIDTH 500 0
DWIDTH 14 0
BBX 14 28 0 -6
BITMAP
0000
0000
0000
0000
1FC0
3060
6030
6030
6030
6030
6030
6030
6030
3030
1FF0
0030
0030
0030
0030
0030
0060
3FC0
0000
0000
0000
0000
0000
0000
ENDCHAR
STARTCHAR colon
ENCODING 58
SWIDTH 500 0
DWIDTH 14 0
BBX 14 28 0 -6
BITMAP
0000
0000
0000
0000
0000
0000
0000
0000
0000
0300
0300
0300
0300
0000
0000
0000
0000
0000
0300
0300
0300
0300
0000
0000
0000
0000
0000
0000
ENDCHAR
STARTCHAR semicolon
ENCODING 59
SWIDTH 500 0
DWIDTH 14 0
BBX 14 28 0 -6
BITMAP
0000
0000
0000
0000
0000
0000
0000
0000
0000
0300
0300
0300
0300
0000
0000
0000
0000
0000
0300
0300
0300
0300
0600
0C00
0000
0000
0000
0000
ENDCHAR
STARTCHAR less
ENCODING 60
SWIDTH 500 0
DWIDTH 14 0
BBX 14 28 0 -6
BITMAP
0000
0000
0000
0000
0000
0030
0060
00C0
0180
0300
0600
0C00
1800
3000
1800
0C00
0600
0300
0180
00C0
0060
0030
0000
0000
0000
0000
0000
0000
ENDCHAR
STARTCHAR equal
ENCODING 61
SWIDTH 500 0
DWIDTH 14 0
BBX 14 28 0 -6
BITMAP
0000
0000
0000
0000
0000
0000
0000
0000
0000
0000
7FF0
0000
0000
0000
0000
0000
7FF0
0000
0000
0000
0000
0000
0000
0000
0000
0000
0000
0000
ENDCHAR
STARTCHAR greater
ENCODING 62
SWIDTH 500 0
DWIDTH 14 0
BBX 14 28 0 -6
BITMAP
0000
0000
0000
0000
0000
3000
1800
0C00
0600
0300
0180
00C0
0060
0030
0060
00C0
0180
0300
0600
0C00
1800
3000
0000
0000
0000
0000
0000
0000
ENDCHAR
STARTCHAR question
ENCODING 63
SWIDTH 500 0
DWIDTH 14 0
BBX 14 28 0 -6
BITMAP
0000
0000
0000
0000
1FC0
3060
6030
6030
6030
6030
0060
00C0
0180
0300
0300
0300
0000
0000
0300
0300
0300
0300
0000
0000
0000
0000
0000
0000
ENDCHAR
STARTCHAR at
ENCODING 64
SWIDTH 500 0
DWIDTH 14 0
BBX 14 28 0 -6
BITMAP
0000
0000
0000
0000
1FE0
3030
6018
6018
61F8
6318
6618
6618
6618
6618
6618
6618
6318
61E8
6000
6000
3000
1FF8
0000
0000
0000
0000
0000
0000
ENDCHAR
STARTCHAR A
ENCODING 65
SWIDTH 500 0
DWIDTH 14 0
BBX 14 28 0 -6
BITMAP
0000
0000
0000
0000
1FC0
3060
6030
6030
6030
6030
6030
6030
6030
7FF0
6030
6030
6030
6030
6030
6030
6030
6030
0000
0000
0000
0000
0000
0000
ENDCHAR
STARTCHAR B
ENCODING 66
SWIDTH 500 0
DWIDTH 14 0
BBX 14 28 0 -6
BITMAP
0000
0000
0000
0000
7FC0
6060
6030
6030
6030
6030
6030
6060
7FC0
6060
6030
6030
6030
6030
6030
6030
6060
7FC0
0000
0000
0000
0000
0000
0000
ENDCHAR
STARTCHAR C
ENCODING 67
SWIDTH 500 0
DWIDTH 14 0
BBX 14 28 0 -6
BITMAP
0000
0000
0000
0000
1FC0
3060
6030
6030
6030
6000
6000
6000
6000
6000
6000
6000
6000
6030
6030
6030
3060
1FC0
0000
0000
0000
0000
0000
0000
ENDCHAR
STARTCHAR D
ENCODING 68
SWIDTH 500 0
DWIDTH 14 0
BBX 14 28 0 -6
BITMAP
0000
0000
0000
0000
7F00
61C0
6060
6060
6030
6030
6030
6030
6030
6030
6030
6030
6030
6030
6060
6060
61C0
7F00
0000
0000
0000
0000
0000
0000
ENDCHAR
STARTCHAR E
ENCODING 69
SWIDTH 500 0
DWIDTH 14 0
BBX 14 28 0 -6
BITMAP
0000
0000
0000
0000
7FF0
6000
6000
6000
6000
6000
6000
6000
7F80
6000
6000
6000
6000
6000
6000
6000
6000
7FF0
0000
0000
0000
0000
0000
0000
ENDCHAR
STARTCHAR F
ENCODING 70
SWIDTH 500 0
DWIDTH 14 0
BBX 14 28 0 -6
BITMAP
0000
0000
0000
0000
7FF0
6000
6000
6000
6000
6000
6000
6000
7F80
6000
6000
6000
6000
6000
6000
6000
6000
6000
0000
0000
0000
0000
0000
0000
ENDCHAR
STARTCHAR G
ENCODING 71
SWIDTH 500 0
DWIDTH 14 0
BBX 14 28 0 -6
BITMAP
0000
0000
0000
0000
1FC0
3060
6030
6030
6030
6000
6000
6000
6000
63F0
6030
6030
6030
6030
6030
6030
3060
1FC0
0000
0000
0000
0000
0000
0000
ENDCHAR
STARTCHAR H
ENCODING 72
SWIDTH 500 0
DWIDTH 14 0
BBX 14 28 0 -6
BITMAP
0000
0000
0000
0000
6030
6030
6030
6030
6030
6030
6030
6030
7FF0
6030
6030
6030
6030
6030
6030
6030
6030
6030
0000
0000
0000
0000
0000
0000
ENDCHAR
STARTCHAR I
ENCODING 73
SWIDTH 500 0
DWIDTH 14 0
BBX 14 28 0 -6
BITMAP
0000
0000
0000
0000
0FC0
0300
0300
0300
0300
0300
0300
0300
0300
0300
0300
0300
0300
0300
0300
0300
0300
0FC0
0000
0000
0000
0000
0000
0000
ENDCHAR
STARTCHAR J
ENCODING 74
SWIDTH 500 0
DWIDTH 14 0
BBX 14 28 0 -6
BITMAP
0000
0000
0000
0000
01F8
0060
0060
0060
0060
0060
0060
0060
0060
0060
0060
0060
6060
6060
6060
6060
30C0
1F80
0000
0000
0000
0000
0000
0000
ENDCHAR
STARTCHAR K
ENCODING 75
SWIDTH 500 0
DWIDTH 14 0
BBX 14 28 0 -6
BITMAP
0000
0000
0000
0000
6030
6060
60C0
6180
6300
6600
6C00
7800
7000
7000
7800
6C00
6600
6300
6180
60C0
6060
6030
0000
0000
0000
0000
0000
0000
ENDCHAR
STARTCHAR L
ENCODING 76
SWIDTH 500 0
DWIDTH 14 0
BBX 14 28 0 -6
BITMAP
0000
0000
0000
0000
6000
6000
6000
6000
6000
6000
6000
6000
6000
6000
6000
6000
6000
6000
6000
6000
6000
7FF0
0000
0000
0000
0000
0000
0000
ENDCHAR
STARTCHAR M
ENCODING 77
SWIDTH 500 0
DWIDTH 14 0
BBX 14 28 0 -6
BITMAP
0000
0000
0000
0000
6018
6018
7038
7878
6CD8
6CD8
6798
6318
6318
6018
6018
6018
6018
6018
6018
6018
6018
6018
0000
0000
0000
0000
0000
0000
ENDCHAR
STARTCHAR N
ENCODING 78
SWIDTH 500 0
DWIDTH 14 0
BBX 14 28 0 -6
BITMAP
0000
0000
0000
0000
6030
6030
6030
6030
6030
7030
7830
6C30
6630
6330
61B0
60F0
6070
6030
6030
6030
6030
6030
0000
0000
0000
0000
0000
0000
ENDCHAR
STARTCHAR O
ENCODING 79
SWIDTH 500 0
DWIDTH 14 0
BBX 14 28 0 -6
BITMAP
0000
0000
0000
0000
1FC0
3060
6030
6030
6030
6030
6030
6030
6030
6030
6030
6030
6030
6030
6030
6030
3060
1FC0
0000
0000
0000
0000
0000
0000
ENDCHAR
STARTCHAR P
ENCODING 80
SWIDTH 500 0
DWIDTH 14 0
BBX 14 28 0 -6
BITMAP
0000
0000
0000
0000
7FC0
6060
6030
6030
6030
6030
6030
6030
6060
7FC0
6000
6000
6000
6000
6000
6000
6000
6000
0000
0000
0000
0000
0000
0000
ENDCHAR
STARTCHAR Q
ENCODING 81
SWIDTH 500 0
DWIDTH 14 0
BBX 14 28 0 -6
BITMAP
0000
0000
0000
0000
1FC0
3060
6030
6030
6030
6030
6030
6030
6030
6030
6030
6030
6030
6030
6030
6330
31E0
1FC0
0060
0030
0000
0000
0000
0000
ENDCHAR
STARTCHAR R
ENCODING 82
SWIDTH 500 0
DWIDTH 14 0
BBX 14 28 0 -6
BITMAP
0000
0000
0000
0000
7FC0
6060
6030
6030
6030
6030
6030
6030
6060
7FC0
7800
6C00
6600
6300
6180
60C0
6060
6030
0000
0000
0000
0000
0000
0000
ENDCHAR
STARTCHAR S
ENCODING 83
SWIDTH 500 0
DWIDTH 14 0
BBX 14 28 0 -6
BITMAP
0000
0000
0000
0000
1FC0
3060
6030
6030
6000
6000
6000
3000
1FC0
0060
0030
0030
0030
0030
6030
6030
3060
1FC0
0000
0000
0000
0000
0000
0000
ENDCHAR
STARTCHAR T
ENCODING 84
SWIDTH 500 0
DWIDTH 14 0
BBX 14 28 0 -6
BITMAP
0000
0000
0000
0000
7FF8
0300
0300
0300
0300
0300
0300
0300
0300
0300
0300
0300
0300
0300
0300
0300
0300
0300
0000
0000
0000
0000
0000
0000
ENDCHAR
STARTCHAR U
ENCODING 85
SWIDTH 500 0
DWIDTH 14 0
BBX 14 28 0 -6
BITMAP
0000
0000
0000
0000
6030
6030
6030
6030
6030
6030
6030
6030
6030
6030
6030
6030
6030
6030
6030
6030
3060
1FC0
0000
0000
0000
0000
0000
0000
ENDCHAR
STARTCHAR V
ENCODING 86
SWIDTH 500 0
DWIDTH 14 0
BBX 14 28 0 -6
BITMAP
0000
0000
0000
0000
6030
6030
6030
6030
3060
3060
3060
3060
18C0
18C0
18C0
18C0
0D80
0D80
0D80
0700
0700
0700
0000
0000
0000
0000
0000
0000
ENDCHAR
STARTCHAR W
ENCODING 87
SWIDTH 500 0
DWIDTH 14 0
BBX 14 28 0 -6
BITMAP
0000
0000
0000
0000
6018
6018
6018
6018
6018
6018
6018
6018
6018
6318
6318
6798
6CD8
6CD8
7878
7038
6018
6018
0000
0000
0000
0000
0000
0000
ENDCHAR
STARTCHAR X
ENCODING 88
SWIDTH 500 0
DWIDTH 14 0
BBX 14 28 0 -6
BITMAP
0000
0000
0000
0000
6030
6030
3060
3060
18C0
18C0
0D80
0D80
0700
0700
0D80
0D80
18C0
18C0
3060
3060
6030
6030
0000
0000
0000
0000
0000
0000
ENDCHAR
STARTCHAR Y
ENCODING 89
SWIDTH 500 0
DWIDTH 14 0
BBX 14 28 0 -6
BITMAP
0000
0000
0000
0000
6018
6018
3030
3030
1860
1860
0CC0
0CC0
0780
0780
0300
0300
0300
0300
0300
0300
0300
0300
0000
0000
0000
0000
0000
0000
ENDCHAR
STARTCHAR Z
ENCODING 90
SWIDTH 500 0
DWIDTH 14 0
BBX 14 28 0 -6
BITMAP
0000
0000
0000
0000
7FF0
0030
0030
0030
0030
0060
00C0
0180
0300
0600
0C00
1800
3000
6000
6000
6000
6000
7FF0
0000
0000
0000
0000
0000
0000
ENDCHAR
STARTCHAR bracketleft
ENCODING 91
SWIDTH 500 0
DWIDTH 14 0
BBX 14 28 0 -6
BITMAP
0000
0000
0000
0000
0FC0
0C00
0C00
0C00
0C00
0C00
0C00
0C00
0C00
0C00
0C00
0C00
0C00
0C00
0C00
0C00
0C00
0FC0
0000
0000
0000
0000
0000
0000
ENDCHAR
STARTCHAR backslash
ENCODING 92
SWIDTH 500 0
DWIDTH 14 0
BBX 14 28 0 -6
BITMAP
0000
0000
0000
0000
3000
3000
1800
1800
0C00
0C00
0600
0600
0300
0300
0180
0180
00C0
00C0
0060
0060
0030
0030
0000
0000
0000
0000
0000
0000
ENDCHAR
STARTCHAR bracketright
ENCODING 93
SWIDTH 500 0
DWIDTH 14 0
BBX 14 28 0 -6
BITMAP
0000
0000
0000
0000
0FC0
00C0
00C0
00C0
00C0
00C0
00C0
00C0
00C0
00C0
00C0
00C0
00C0
00C0
00C0
00C0
00C0
0FC0
0000
0000
0000
0000
0000
0000
ENDCHAR
STARTCHAR asciicircum
ENCODING 94
SWIDTH 500 0
DWIDTH 14 0
BBX 14 28 0 -6
BITMAP
0000
0000
0200
0700
0D80
18C0
3060
6030
0000
0000
0000
0000
0000
0000
0000
0000
0000
0000
0000
0000
0000
0000
0000
0000
0000
0000
0000
0000
ENDCHAR
STARTCHAR underscore
ENCODING 95
SWIDTH 500 0
DWIDTH 14 0
BBX 14 28 0 -6
BITMAP
0000
0000
0000
0000
0000
0000
0000
0000
0000
0000
0000
0000
0000
0000
0000
0000
0000
0000
0000
0000
0000
0000
0000
0000
7FF0
0000
0000
0000
ENDCHAR
STARTCHAR grave
ENCODING 96
SWIDTH 500 0
DWIDTH 14 0
BBX 14 28 0 -6
BITMAP
0C00
0600
0300
0000
0000
0000
0000
0000
0000
0000
0000
0000
0000
0000
0000
0000
0000
0000
0000
0000
0000
0000
0000
0000
0000
0000
0000
0000
ENDCHAR
STARTCHAR a
ENCODING 97
SWIDTH 500 0
DWIDTH 14 0
BBX 14 28 0 -6
BITMAP
0000
0000
0000
0000
0000
0000
0000
0000
0000
1FC0
0060
0030
0030
1FF0
3030
6030
6030
6030
6030
6030
3030
1FF0
0000
0000
0000
0000
0000
0000
ENDCHAR
STARTCHAR b
ENCODING 98
SWIDTH 500 0
DWIDTH 14 0
BBX 14 28 0 -6
BITMAP
0000
0000
0000
0000
6000
6000
6000
6000
6000
7FC0
6060
6030
6030
6030
6030
6030
6030
6030
6030
6030
6060
7FC0
0000
0000
0000
0000
0000
0000
ENDCHAR
STARTCHAR c
ENCODING 99
SWIDTH 500 0
DWIDTH 14 0
BBX 14 28 0 -6
BITMAP
0000
0000
0000
0000
0000
0000
0000
0000
0000
1FC0
3060
6030
6000
6000
6000
6000
6000
6000
6000
6030
3060
1FC0
0000
0000
0000
0000
0000
0000
ENDCHAR
STARTCHAR d
ENCODING 100
SWIDTH 500 0
DWIDTH 14 0
BBX 14 28 0 -6
BITMAP
0000
0000
0000
0000
0030
0030
0030
0030
0030
1FF0
3030
6030
6030
6030
6030
6030
6030
6030
6030
6030
3030
1FF0
0000
0000
0000
0000
0000
0000
ENDCHAR
STARTCHAR e
ENCODING 101
SWIDTH 500 0
DWIDTH 14 0
BBX 14 28 0 -6
BITMAP
0000
0000
0000
0000
0000
0000
0000
0000
0000
1FC0
3060
6030
6030
6030
6030
7FF0
6000
6000
6000
6000
3030
1FE0
0000
0000
0000
0000
0000
0000
ENDCHAR
STARTCHAR f
ENCODING 102
SWIDTH 500 0
DWIDTH 14 0
BBX 14 28 0 -6
BITMAP
0000
0000
0000
0000
03F0
0600
0600
0600
0600
3FC0
0600
0600
0600
0600
0600
0600
0600
0600
0600
0600
0600
0600
0000
0000
0000
0000
0000
0000
ENDCHAR
STARTCHAR g
ENCODING 103
SWIDTH 500 0
DWIDTH 14 0
BBX 14 28 0 -6
BITMAP
0000
0000
0000
0000
0000
0000
0000
0000
0000
1FF0
3030
6030
6030
6030
6030
6030
6030
6030
6030
6030
3030
1FF0
0030
0030
0030
0060
3FC0
0000
ENDCHAR
STARTCHAR h
ENCODING 104
SWIDTH 500 0
DWIDTH 14 0
BBX 14 28 0 -6
BITMAP
0000
0000
0000
0000
6000
6000
6000
6000
6000
7FC0
6060
6030
6030
6030
6030
6030
6030
6030
6030
6030
6030
6030
0000
0000
0000
0000
0000
0000
ENDCHAR
STARTCHAR i
ENCODING 105
SWIDTH 500 0
DWIDTH 14 0
BBX 14 28 0 -6
BITMAP
0000
0000
0000
0000
0300
0300
0300
0000
0000
0F00
0300
0300
0300
0300
0300
0300
0300
0300
0300
0300
0300
0FC0
0000
0000
0000
0000
0000
0000
ENDCHAR
STARTCHAR j
ENCODING 106
SWIDTH 500 0
DWIDTH 14 0
BBX 14 28 0 -6
BITMAP
0000
0000
0000
0000
0060
0060
0060
0000
0000
01E0
0060
0060
0060
0060
0060
0060
0060
0060
0060
0060
0060
0060
3060
3060
3060
18C0
0F80
0000
ENDCHAR
STARTCHAR k
ENCODING 107
SWIDTH 500 0
DWIDTH 14 0
BBX 14 28 0 -6
BITMAP
0000
0000
0000
0000
3000
3000
3000
3000
3000
3030
3060
30C0
3180
3300
3600
3C00
3600
3300
3180
30C0
3060
3030
0000
0000
0000
0000
0000
0000
ENDCHAR
STARTCHAR l
ENCODING 108
SWIDTH 500 0
DWIDTH 14 0
BBX 14 28 0 -6
BITMAP
0000
0000
0000
0000
0F00
0300
0300
0300
0300
0300
0300
0300
0300
0300
0300
0300
0300
0300
0300
0300
0300
0FC0
0000
0000
0000
0000
0000
0000
ENDCHAR
STARTCHAR m
ENCODING 109
SWIDTH 500 0
DWIDTH 14 0
BBX 14 28 0 -6
BITMAP
0000
0000
0000
0000
0000
0000
0000
0000
0000
7FE0
6330
6318
6318
6318
6318
6318
6318
6318
6318
6318
6318
6318
0000
0000
0000
0000
0000
0000
ENDCHAR
STARTCHAR n
ENCODING 110
SWIDTH 500 0
DWIDTH 14 0
BBX 14 28 0 -6
BITMAP
0000
0000
0000
0000
0000
0000
0000
0000
0000
7FC0
6060
6030
6030
6030
6030
6030
6030
6030
6030
6030
6030
6030
0000
0000
0000
0000
0000
0000
ENDCHAR
STARTCHAR o
ENCODING 111
SWIDTH 500 0
DWIDTH 14 0
BBX 14 28 0 -6
BITMAP
0000
0000
0000
0000
0000
0000
0000
0000
0000
1FC0
3060
6030
6030
6030
6030
6030
6030
6030
6030
6030
3060
1FC0
0000
0000
0000
0000
0000
0000
ENDCHAR
STARTCHAR p
ENCODING 112
SWIDTH 500 0
DWIDTH 14 0
BBX 14 28 0 -6
BITMAP
0000
0000
0000
0000
0000
0000
0000
0000
0000
7FC0
6060
6030
6030
6030
6030
6030
6030
6030
6030
6030
6060
7FC0
6000
6000
6000
6000
6000
0000
ENDCHAR
STARTCHAR q
ENCODING 113
SWIDTH 500 0
DWIDTH 14 0
BBX 14 28 0 -6
BITMAP
0000
0000
0000
0000
0000
0000
0000
0000
0000
1FF0
3030
6030
6030
6030
6030
6030
6030
6030
6030
6030
3030
1FF0
0030
0030
0030
0030
0030
0000
ENDCHAR
STARTCHAR r
ENCODING 114
SWIDTH 500 0
DWIDTH 14 0
BBX 14 28 0 -6
BITMAP
0000
0000
0000
0000
0000
0000
0000
0000
0000
67F0
6C00
7800
7000
6000
6000
6000
6000
6000
6000
6000
6000
6000
0000
0000
0000
0000
0000
0000
ENDCHAR
STARTCHAR s
ENCODING 115
SWIDTH 500 0
DWIDTH 14 0
BBX 14 28 0 -6
BITMAP
0000
0000
0000
0000
0000
0000
0000
0000
0000
1FC0
3060
6030
6000
6000
3000
1FC0
0060
0030
0030
6030
3060
1FC0
0000
0000
0000
0000
0000
0000
ENDCHAR
STARTCHAR t
ENCODING 116
SWIDTH 500 0
DWIDTH 14 0
BBX 14 28 0 -6
BITMAP
0000
0000
0000
0000
0600
0600
0600
0600
0600
3FC0
0600
0600
0600
0600
0600
0600
0600
0600
0600
0600
0600
03E0
0000
0000
0000
0000
0000
0000
ENDCHAR
STARTCHAR u
ENCODING 117
SWIDTH 500 0
DWIDTH 14 0
BBX 14 28 0 -6
BITMAP
0000
0000
0000
0000
0000
0000
0000
0000
0000
6030
6030
6030
6030
6030
6030
6030
6030
6030
6030
6030
3030
1FF0
0000
0000
0000
0000
0000
0000
ENDCHAR
STARTCHAR v
ENCODING 118
SWIDTH 500 0
DWIDTH 14 0
BBX 14 28 0 -6
BITMAP
0000
0000
0000
0000
0000
0000
0000
0000
0000
6030
6030
6030
3060
3060
3060
18C0
18C0
18C0
0D80
0D80
0700
0700
0000
0000
0000
0000
0000
0000
ENDCHAR
STARTCHAR w
ENCODING 119
SWIDTH 500 0
DWIDTH 14 0
BBX 14 28 0 -6
BITMAP
0000
0000
0000
0000
0000
0000
0000
0000
0000
6018
6018
6018
6018
6318
6318
6318
6318
6318
6318
6318
3330
1FE0
0000
0000
0000
0000
0000
0000
ENDCHAR
STARTCHAR x
ENCODING 120
SWIDTH 500 0
DWIDTH 14 0
BBX 14 28 0 -6
BITMAP
0000
0000
0000
0000
0000
0000
0000
0000
0000
6030
6030
3060
18C0
0D80
0700
0700
0700
0D80
18C0
3060
6030
6030
0000
0000
0000
0000
0000
0000
ENDCHAR
STARTCHAR y
ENCODING 121
SWIDTH 500 0
DWIDTH 14 0
BBX 14 28 0 -6
BITMAP
0000
0000
0000
0000
0000
0000
0000
0000
0000
6030
6030
6030
6030
6030
6030
6030
6030
6030
6030
6030
3030
1FF0
0030
0030
0030
0060
3FC0
0000
ENDCHAR
STARTCHAR z
ENCODING 122
SWIDTH 500 0
DWIDTH 14 0
BBX 14 28 0 -6
BITMAP
0000
0000
0000
0000
0000
0000
0000
0000
0000
7FF0
0030
0060
00C0
0180
0300
0600
0C00
1800
3000
6000
6000
7FF0
0000
0000
0000
0000
0000
0000
ENDCHAR
STARTCHAR braceleft
ENCODING 123
SWIDTH 500 0
DWIDTH 14 0
BBX 14 28 0 -6
BITMAP
0000
0000
0000
0000
01C0
0300
0600
0600
0600
0600
0600
0600
1C00
1C00
0600
0600
0600
0600
0600
0600
0300
01C0
0000
0000
0000
0000
0000
0000
ENDCHAR
STARTCHAR bar
ENCODING 124
SWIDTH 500 0
DWIDTH 14 0
BBX 14 28 0 -6
BITMAP
0000
0000
0000
0000
0300
0300
0300
0300
0300
0300
0300
0300
0300
0300
0300
0300
0300
0300
0300
0300
0300
0300
0000
0000
0000
0000
0000
0000
ENDCHAR
STARTCHAR braceright
ENCODING 125
SWIDTH 500 0
DWIDTH 14 0
BBX 14 28 0 -6
BITMAP
0000
0000
0000
0000
1C00
0600
0300
0300
0300
0300
0300
0300
01C0
01C0
0300
0300
0300
0300
0300
0300
0600
1C00
0000
0000
0000
0000
0000
0000
ENDCHAR
STARTCHAR asciitilde
ENCODING 126
SWIDTH 500 0
DWIDTH 14 0
BBX 14 28 0 -6
BITMAP
0000
0000
3C30
6630
6330
6330
61E0
0000
0000
0000
0000
0000
0000
0000
0000
0000
0000
0000
0000
0000
0000
0000
0000
0000
0000
0000
0000
0000
ENDCHAR
STARTCHAR nbspace
ENCODING 160
SWIDTH 500 0
DWIDTH 14 0
BBX 14 28 0 -6
BITMAP
0000
0000
0000
0000
0000
0000
0000
0000
0000
0000
0000
0000
0000
0000
0000
0000
0000
0000
0000
0000
0000
0000
0000
0000
0000
0000
0000
0000
ENDCHAR
STARTCHAR exclamdown
ENCODING 161
SWIDTH 500 0
DWIDTH 14 0
BBX 14 28 0 -6
BITMAP
0000
0000
0000
0000
0300
0300
0300
0300
0000
0000
0300
0300
0300
0300
0300
0300
0300
0300
0300
0300
0300
0300
0000
0000
0000
0000
0000
0000
ENDCHAR
STARTCHAR cent
ENCODING 162
SWIDTH 500 0
DWIDTH 14 0
BBX 14 28 0 -6
BITMAP
0000
0000
0000
0000
0000
0000
0000
0300
0300
0FC0
1B60
3330
3300
3300
3300
3300
3300
3300
3300
3330
1B60
0FC0
0300
0300
0000
0000
0000
0000
ENDCHAR
STARTCHAR sterling
ENCODING 163
SWIDTH 500 0
DWIDTH 14 0
BBX 14 28 0 -6
BITMAP
0000
0000
0000
0000
0780
0CC0
1860
1800
1800
1800
1800
1800
3F80
1800
1800
1800
1800
1800
1800
1830
3830
3FF0
0000
0000
0000
0000
0000
0000
ENDCHAR
STARTCHAR currency
ENCODING 164
SWIDTH 500 0
DWIDTH 14 0
BBX 14 28 0 -6
BITMAP
0000
0000
0000
0000
0000
0000
0000
6018
3030
1FE0
3030
3030
3030
3030
3030
3030
3030
1FE0
3030
6018
0000
0000
0000
0000
0000
0000
0000
0000
ENDCHAR
STARTCHAR yen
ENCODING 165
SWIDTH 500 0
DWIDTH 14 0
BBX 14 28 0 -6
BITMAP
0000
0000
0000
0000
6018
6018
3030
3030
1860
1860
0CC0
0CC0
0780
0300
0300
3FF0
0300
0300
3FF0
0300
0300
0300
0000
0000
0000
0000
0000
0000
ENDCHAR
STARTCHAR brokenbar
ENCODING 166
SWIDTH 500 0
DWIDTH 14 0
BBX 14 28 0 -6
BITMAP
0000
0000
0000
0000
0300
0300
0300
0300
0300
0300
0300
0000
0000
0000
0000
0300
0300
0300
0300
0300
0300
0300
0000
0000
0000
0000
0000
0000
ENDCHAR
STARTCHAR section
ENCODING 167
SWIDTH 500 0
DWIDTH 14 0
BBX 14 28 0 -6
BITMAP
0000
0000
0000
0780
0CC0
1860
1800
1C00
0F00
0D80
18C0
1860
1860
1860
1860
0C60
06C0
03C0
00E0
0060
1860
0CC0
0780
0000
0000
0000
0000
0000
ENDCHAR
STARTCHAR dieresis
ENCODING 168
SWIDTH 500 0
DWIDTH 14 0
BBX 14 28 0 -6
BITMAP
18C0
18C0
18C0
0000
0000
0000
0000
0000
0000
0000
0000
0000
0000
0000
0000
0000
0000
0000
0000
0000
0000
0000
0000
0000
0000
0000
0000
0000
ENDCHAR
STARTCHAR copyright
ENCODING 169
SWIDTH 500 0
DWIDTH 14 0
BBX 14 28 0 -6
BITMAP
0000
0000
0000
0000
0000
0000
0000
3FE0
6030
CF98
D8D8
D8D8
D818
D818
D818
D818
D8D8
D8D8
CF98
6030
3FE0
0000
0000
0000
0000
0000
0000
0000
ENDCHAR
STARTCHAR ordfeminine
ENCODING 170
SWIDTH 500 0
DWIDTH 14 0
BBX 14 28 0 -6
BITMAP
0000
1FC0
0060
0030
0FF0
1830
3030
3030
3030
1830
0FF0
0000
0000
3FF0
0000
0000
0000
0000
0000
0000
0000
0000
0000
0000
0000
0000
0000
0000
ENDCHAR
STARTCHAR guillemotleft
ENCODING 171
SWIDTH 500 0
DWIDTH 14 0
BBX 14 28 0 -6
BITMAP
0000
0000
0000
0000
0000
0000
0000
0000
0000
0198
0330
0660
0CC0
1980
3300
6600
3300
1980
0CC0
0660
0330
0198
0000
0000
0000
0000
0000
0000
ENDCHAR
STARTCHAR logicalnot
ENCODING 172
SWIDTH 500 0
DWIDTH 14 0
BBX 14 28 0 -6
BITMAP
0000
0000
0000
0000
0000
0000
0000
0000
0000
0000
7FF0
0030
0030
0030
0030
0030
0030
0000
0000
0000
0000
0000
0000
0000
0000
0000
0000
0000
ENDCHAR
STARTCHAR softhyphen
ENCODING 173
SWIDTH 500 0
DWIDTH 14 0
BBX 14 28 0 -6
BITMAP
0000
0000
0000
0000
0000
0000
0000
0000
0000
0000
0000
0000
0000
3FF0
0000
0000
0000
0000
0000
0000
0000
0000
0000
0000
0000
0000
0000
0000
ENDCHAR
STARTCHAR registered
ENCODING 174
SWIDTH 500 0
DWIDTH 14 0
BBX 14 28 0 -6
BITMAP
0000
0000
0000
0000
0000
0000
0000
3FE0
6030
DF98
D8D8
D8D8
D8D8
D8D8
DF98
DE18
DB18
D998
D8D8
6030
3FE0
0000
0000
0000
0000
0000
0000
0000
ENDCHAR
STARTCHAR macron
ENCODING 175
SWIDTH 500 0
DWIDTH 14 0
BBX 14 28 0 -6
BITMAP
0000
1FC0
0000
0000
0000
0000
0000
0000
0000
0000
0000
0000
0000
0000
0000
0000
0000
0000
0000
0000
0000
0000
0000
0000
0000
0000
0000
0000
ENDCHAR
STARTCHAR degree
ENCODING 176
SWIDTH 500 0
DWIDTH 14 0
BBX 14 28 0 -6
BITMAP
0000
0000
0F80
18C0
18C0
18C0
18C0
18C0
0F80
0000
0000
0000
0000
0000
0000
0000
0000
0000
0000
0000
0000
0000
0000
0000
0000
0000
0000
0000
ENDCHAR
STARTCHAR plusminus
ENCODING 177
SWIDTH 500 0
DWIDTH 14 0
BBX 14 28 0 -6
BITMAP
0000
0000
0000
0000
0000
0000
0000
0300
0300
0300
0300
0300
7FF8
0300
0300
0300
0300
0300
0000
0000
0000
7FF8
0000
0000
0000
0000
0000
0000
ENDCHAR
STARTCHAR twosuperior
ENCODING 178
SWIDTH 500 0
DWIDTH 14 0
BBX 14 28 0 -6
BITMAP
0000
0000
0F80
18C0
18C0
00C0
0180
0300
0600
0C00
1800
1FC0
0000
0000
0000
0000
0000
0000
0000
0000
0000
0000
0000
0000
0000
0000
0000
0000
ENDCHAR
STARTCHAR threesuperior
ENCODING 179
SWIDTH 500 0
DWIDTH 14 0
BBX 14 28 0 -6
BITMAP
0000
0000
0F80
18C0
00C0
00C0
0780
00C0
00C0
00C0
18C0
0F80
0000
0000
0000
0000
0000
0000
0000
0000
0000
0000
0000
0000
0000
0000
0000
0000
ENDCHAR
STARTCHAR acute
ENCODING 180
SWIDTH 500 0
DWIDTH 14 0
BBX 14 28 0 -6
BITMAP
0180
0300
0600
0000
0000
0000
0000
0000
0000
0000
0000
0000
0000
0000
0000
0000
0000
0000
0000
0000
0000
0000
0000
0000
0000
0000
0000
0000
ENDCHAR
STARTCHAR mu
ENCODING 181
SWIDTH 500 0
DWIDTH 14 0
BBX 14 28 0 -6
BITMAP
0000
0000
0000
0000
0000
0000
0000
0000
0000
6030
6030
6030
6030
6030
6030
6030
6030
6030
6070
60F0
61B0
7F30
6000
6000
6000
6000
6000
0000
ENDCHAR
STARTCHAR paragraph
ENCODING 182
SWIDTH 500 0
DWIDTH 14 0
BBX 14 28 0 -6
BITMAP
0000
0000
0000
0000
3FF8
6318
6318
6318
6318
6318
6318
6318
6318
3F18
0318
0318
0318
0318
0318
0318
0318
0318
0000
0000
0000
0000
0000
0000
ENDCHAR
STARTCHAR periodcentered
ENCODING 183
SWIDTH 500 0
DWIDTH 14 0
BBX 14 28 0 -6
BITMAP
0000
0000
0000
0000
0000
0000
0000
0000
0000
0000
0000
0000
0300
0300
0300
0300
0000
0000
0000
0000
0000
0000
0000
0000
0000
0000
0000
0000
ENDCHAR
STARTCHAR cedilla
ENCODING 184
SWIDTH 500 0
DWIDTH 14 0
BBX 14 28 0 -6
BITMAP
0000
0000
0000
0000
0000
0000
0000
0000
0000
0000
0000
0000
0000
0000
0000
0000
0000
0000
0000
0000
0000
0000
0600
0600
0600
0C00
1800
0000
ENDCHAR
STARTCHAR onesuperior
ENCODING 185
SWIDTH 500 0
DWIDTH 14 0
BBX 14 28 0 -6
BITMAP
0000
0000
0300
0700
0F00
0300
0300
0300
0300
0300
0300
0FC0
0000
0000
0000
0000
0000
0000
0000
0000
0000
0000
0000
0000
0000
0000
0000
0000
ENDCHAR
STARTCHAR ordmasculine
ENCODING 186
SWIDTH 500 0
DWIDTH 14 0
BBX 14 28 0 -6
BITMAP
0000
0FC0
1860
3030
3030
3030
3030
3030
3030
1860
0FC0
0000
0000
3FF0
0000
0000
0000
0000
0000
0000
0000
0000
0000
0000
0000
0000
0000
0000
ENDCHAR
STARTCHAR guillemotright
ENCODING 187
SWIDTH 500 0
DWIDTH 14 0
BBX 14 28 0 -6
BITMAP
0000
0000
0000
0000
0000
0000
0000
0000
0000
6600
3300
1980
0CC0
0660
0330
0198
0330
0660
0CC0
1980
3300
6600
0000
0000
0000
0000
0000
0000
ENDCHAR
STARTCHAR onequarter
ENCODING 188
SWIDTH 500 0
DWIDTH 14 0
BBX 14 28 0 -6
BITMAP
0000
0000
0000
0000
0C00
1C00
3C00
0C00
0C10
0C30
0C60
0CC0
0180
0330
0670
0CF0
19B0
3330
6630
47F0
0030
0030
0000
0000
0000
0000
0000
0000
ENDCHAR
STARTCHAR onehalf
ENCODING 189
SWIDTH 500 0
DWIDTH 14 0
BBX 14 28 0 -6
BITMAP
0000
0000
0000
0000
1800
3800
7810
1830
1860
18C0
1980
1B00
0600
0C00
1BE0
3630
6630
4060
00C0
0180
0300
07F0
0000
0000
0000
0000
0000
0000
ENDCHAR
STARTCHAR threequarters
ENCODING 190
SWIDTH 500 0
DWIDTH 14 0
BBX 14 28 0 -6
BITMAP
0000
0000
0000
0000
3E00
6300
0300
1E00
0308
0318
6330
3E60
00C0
0198
0338
0678
0CD8
1998
3318
63F8
0018
0018
0000
0000
0000
0000
0000
0000
ENDCHAR
STARTCHAR questiondown
ENCODING 191
SWIDTH 500 0
DWIDTH 14 0
BBX 14 28 0 -6
BITMAP
0000
0000
0000
0000
0600
0600
0600
0600
0000
0000
0600
0600
0600
0C00
1800
3000
6030
6030
6030
6030
3060
1FC0
0000
0000
0000
0000
0000
0000
ENDCHAR
STARTCHAR Agrave
ENCODING 192
SWIDTH 500 0
DWIDTH 14 0
BBX 14 28 0 -6
BITMAP
0C00
0600
0300
0000
1FC0
3060
6030
6030
6030
6030
6030
6030
6030
7FF0
6030
6030
6030
6030
6030
6030
6030
6030
0000
0000
0000
0000
0000
0000
ENDCHAR
STARTCHAR Aacute
ENCODING 193
SWIDTH 500 0
DWIDTH 14 0
BBX 14 28 0 -6
BITMAP
0180
0300
0600
0000
1FC0
3060
6030
6030
6030
6030
6030
6030
6030
7FF0
6030
6030
6030
6030
6030
6030
6030
6030
0000
0000
0000
0000
0000
0000
ENDCHAR
STARTCHAR Acircumflex
ENCODING 194
SWIDTH 500 0
DWIDTH 14 0
BBX 14 28 0 -6
BITMAP
0700
0D80
18C0
0000
1FC0
3060
6030
6030
6030
6030
6030
6030
6030
7FF0
6030
6030
6030
6030
6030
6030
6030
6030
0000
0000
0000
0000
0000
0000
ENDCHAR
STARTCHAR Atilde
ENCODING 195
SWIDTH 500 0
DWIDTH 14 0
BBX 14 28 0 -6
BITMAP
1C60
3760
31C0
0000
1FC0
3060
6030
6030
6030
6030
6030
6030
6030
7FF0
6030
6030
6030
6030
6030
6030
6030
6030
0000
0000
0000
0000
0000
0000
ENDCHAR
STARTCHAR Adieresis
ENCODING 196
SWIDTH 500 0
DWIDTH 14 0
BBX 14 28 0 -6
BITMAP
18C0
18C0
18C0
0000
1FC0
3060
6030
6030
6030
6030
6030
6030
6030
7FF0
6030
6030
6030
6030
6030
6030
6030
6030
0000
0000
0000
0000
0000
0000
ENDCHAR
STARTCHAR Aring
ENCODING 197
SWIDTH 500 0
DWIDTH 14 0
BBX 14 28 0 -6
BITMAP
0780
0CC0
0CC0
0780
1FC0
3060
6030
6030
6030
6030
6030
6030
6030
7FF0
6030
6030
6030
6030
6030
6030
6030
6030
0000
0000
0000
0000
0000
0000
ENDCHAR
STARTCHAR AE
ENCODING 198
SWIDTH 500 0
DWIDTH 14 0
BBX 14 28 0 -6
BITMAP
0000
0000
0000
0000
3FF8
6300
C300
C300
C300
C300
C300
C300
FFF0
C300
C300
C300
C300
C300
C300
C300
C300
C3F8
0000
0000
0000
0000
0000
0000
ENDCHAR
STARTCHAR Ccedilla
ENCODING 199
SWIDTH 500 0
DWIDTH 14 0
BBX 14 28 0 -6
BITMAP
0000
0000
0000
0000
1FC0
3060
6030
6030
6030
6000
6000
6000
6000
6000
6000
6000
6000
6030
6030
6030
3060
1FC0
0600
0600
0600
0C00
1800
0000
ENDCHAR
STARTCHAR Egrave
ENCODING 200
SWIDTH 500 0
DWIDTH 14 0
BBX 14 28 0 -6
BITMAP
0C00
0600
0300
0000
7FF0
6000
6000
6000
6000
6000
6000
6000
7F80
6000
6000
6000
6000
6000
6000
6000
6000
7FF0
0000
0000
0000
0000
0000
0000
ENDCHAR
STARTCHAR Eacute
ENCODING 201
SWIDTH 500 0
DWIDTH 14 0
BBX 14 28 0 -6
BITMAP
0180
0300
0600
0000
7FF0
6000
6000
6000
6000
6000
6000
6000
7F80
6000
6000
6000
6000
6000
6000
6000
6000
7FF0
0000
0000
0000
0000
0000
0000
ENDCHAR
STARTCHAR Ecircumflex
ENCODING 202
SWIDTH 500 0
DWIDTH 14 0
BBX 14 28 0 -6
BITMAP
0700
0D80
18C0
0000
7FF0
6000
6000
6000
6000
6000
6000
6000
7F80
6000
6000
6000
6000
6000
6000
6000
6000
7FF0
0000
0000
0000
0000
0000
0000
ENDCHAR
STARTCHAR Edieresis
ENCODING 203
SWIDTH 500 0
DWIDTH 14 0
BBX 14 28 0 -6
BITMAP
18C0
18C0
18C0
0000
7FF0
6000
6000
6000
6000
6000
6000
6000
7F80
6000
6000
6000
6000
6000
6000
6000
6000
7FF0
0000
0000
0000
0000
0000
0000
ENDCHAR
STARTCHAR Igrave
ENCODING 204
SWIDTH 500 0
DWIDTH 14 0
BBX 14 28 0 -6
BITMAP
0C00
0600
0300
0000
0FC0
0300
0300
0300
0300
0300
0300
0300
0300
0300
0300
0300
0300
0300
0300
0300
0300
0FC0
0000
0000
0000
0000
0000
0000
ENDCHAR
STARTCHAR Iacute
ENCODING 205
SWIDTH 500 0
DWIDTH 14 0
BBX 14 28 0 -6
BITMAP
00C0
0180
0300
0000
0FC0
0300
0300
0300
0300
0300
0300
0300
0300
0300
0300
0300
0300
0300
0300
0300
0300
0FC0
0000
0000
0000
0000
0000
0000
ENDCHAR
STARTCHAR Icircumflex
ENCODING 206
SWIDTH 500 0
DWIDTH 14 0
BBX 14 28 0 -6
BITMAP
0700
0D80
18C0
0000
0FC0
0300
0300
0300
0300
0300
0300
0300
0300
0300
0300
0300
0300
0300
0300
0300
0300
0FC0
0000
0000
0000
0000
0000
0000
ENDCHAR
STARTCHAR Idieresis
ENCODING 207
SWIDTH 500 0
DWIDTH 14 0
BBX 14 28 0 -6
BITMAP
18C0
18C0
18C0
0000
0FC0
0300
0300
0300
0300
0300
0300
0300
0300
0300
0300
0300
0300
0300
0300
0300
0300
0FC0
0000
0000
0000
0000
0000
0000
ENDCHAR
STARTCHAR Eth
ENCODING 208
SWIDTH 500 0
DWIDTH 14 0
BBX 14 28 0 -6
BITMAP
0000
0000
0000
0000
7F00
61C0
6060
6060
6030
6030
6030
6030
FE30
6030
6030
6030
6030
6030
6060
6060
61C0
7F00
0000
0000
0000
0000
0000
0000
ENDCHAR
STARTCHAR Ntilde
ENCODING 209
SWIDTH 500 0
DWIDTH 14 0
BBX 14 28 0 -6
BITMAP
1C60
3760
31C0
0000
6030
6030
6030
6030
6030
7030
7830
6C30
6630
6330
61B0
60F0
6070
6030
6030
6030
6030
6030
0000
0000
0000
0000
0000
0000
ENDCHAR
STARTCHAR Ograve
ENCODING 210
SWIDTH 500 0
DWIDTH 14 0
BBX 14 28 0 -6
BITMAP
0C00
0600
0300
0000
1FC0
3060
6030
6030
6030
6030
6030
6030
6030
6030
6030
6030
6030
6030
6030
6030
3060
1FC0
0000
0000
0000
0000
0000
0000
ENDCHAR
STARTCHAR Oacute
ENCODING 211
SWIDTH 500 0
DWIDTH 14 0
BBX 14 28 0 -6
BITMAP
0180
0300
0600
0000
1FC0
3060
6030
6030
6030
6030
6030
6030
6030
6030
6030
6030
6030
6030
6030
6030
3060
1FC0
0000
0000
0000
0000
0000
0000
ENDCHAR
STARTCHAR Ocircumflex
ENCODING 212
SWIDTH 500 0
DWIDTH 14 0
BBX 14 28 0 -6
BITMAP
0700
0D80
18C0
0000
1FC0
3060
6030
6030
6030
6030
6030
6030
6030
6030
6030
6030
6030
6030
6030
6030
3060
1FC0
0000
0000
0000
0000
0000
0000
ENDCHAR
STARTCHAR Otilde
ENCODING 213
SWIDTH 500 0
DWIDTH 14 0
BBX 14 28 0 -6
BITMAP
1C60
3760
31C0
0000
1FC0
3060
6030
6030
6030
6030
6030
6030
6030
6030
6030
6030
6030
6030
6030
6030
3060
1FC0
0000
0000
0000
0000
0000
0000
ENDCHAR
STARTCHAR Odieresis
ENCODING 214
SWIDTH 500 0
DWIDTH 14 0
BBX 14 28 0 -6
BITMAP
18C0
18C0
18C0
0000
1FC0
3060
6030
6030
6030
6030
6030
6030
6030
6030
6030
6030
6030
6030
6030
6030
3060
1FC0
0000
0000
0000
0000
0000
0000
ENDCHAR
STARTCHAR multiply
ENCODING 215
SWIDTH 500 0
DWIDTH 14 0
BBX 14 28 0 -6
BITMAP
0000
0000
0000
0000
0000
0000
0000
0000
6018
3030
1860
0CC0
0780
0300
0780
0CC0
1860
3030
6018
0000
0000
0000
0000
0000
0000
0000
0000
0000
ENDCHAR
STARTCHAR Oslash
ENCODING 216
SWIDTH 500 0
DWIDTH 14 0
BBX 14 28 0 -6
BITMAP
0000
0000
0000
0000
1FC0
3060
6030
6038
6030
6070
60F0
61B0
6330
6630
6C30
7830
7030
6030
E030
6030
3060
1FC0
0000
0000
0000
0000
0000
0000
ENDCHAR
STARTCHAR Ugrave
ENCODING 217
SWIDTH 500 0
DWIDTH 14 0
BBX 14 28 0 -6
BITMAP
0C00
0600
0300
0000
6030
6030
6030
6030
6030
6030
6030
6030
6030
6030
6030
6030
6030
6030
6030
6030
3060
1FC0
0000
0000
0000
0000
0000
0000
ENDCHAR
STARTCHAR Uacute
ENCODING 218
SWIDTH 500 0
DWIDTH 14 0
BBX 14 28 0 -6
BITMAP
0180
0300
0600
0000
6030
6030
6030
6030
6030
6030
6030
6030
6030
6030
6030
6030
6030
6030
6030
6030
3060
1FC0
0000
0000
0000
0000
0000
0000
ENDCHAR
STARTCHAR Ucircumflex
ENCODING 219
SWIDTH 500 0
DWIDTH 14 0
BBX 14 28 0 -6
BITMAP
0700
0D80
18C0
0000
6030
6030
6030
6030
6030
6030
6030
6030
6030
6030
6030
6030
6030
6030
6030
6030
3060
1FC0
0000
0000
0000
0000
0000
0000
ENDCHAR
STARTCHAR Udieresis
ENCODING 220
SWIDTH 500 0
DWIDTH 14 0
BBX 14 28 0 -6
BITMAP
18C0
18C0
18C0
0000
6030
6030
6030
6030
6030
6030
6030
6030
6030
6030
6030
6030
6030
6030
6030
6030
3060
1FC0
0000
0000
0000
0000
0000
0000
ENDCHAR
STARTCHAR Yacute
ENCODING 221
SWIDTH 500 0
DWIDTH 14 0
BBX 14 28 0 -6
BITMAP
00C0
0180
0300
0000
6018
6018
3030
3030
1860
1860
0CC0
0CC0
0780
0780
0300
0300
0300
0300
0300
0300
0300
0300
0000
0000
0000
0000
0000
0000
ENDCHAR
STARTCHAR Thorn
ENCODING 222
SWIDTH 500 0
DWIDTH 14 0
BBX 14 28 0 -6
BITMAP
0000
0000
0000
0000
6000
6000
6000
6000
7FC0
6060
6030
6030
6030
6030
6030
6030
6060
7FC0
6000
6000
6000
6000
0000
0000
0000
0000
0000
0000
ENDCHAR
STARTCHAR germandbls
ENCODING 223
SWIDTH 500 0
DWIDTH 14 0
BBX 14 28 0 -6
BITMAP
0000
0000
0000
0000
3F80
60C0
6060
6060
6060
6060
60C0
7FC0
6060
6030
6030
6030
6030
6030
6030
7030
6C60
67C0
0000
0000
0000
0000
0000
0000
ENDCHAR
STARTCHAR agrave
ENCODING 224
SWIDTH 500 0
DWIDTH 14 0
BBX 14 28 0 -6
BITMAP
0000
0000
0000
0000
0000
0C00
0600
0300
0000
1FC0
0060
0030
0030
1FF0
3030
6030
6030
6030
6030
6030
3030
1FF0
0000
0000
0000
0000
0000
0000
ENDCHAR
STARTCHAR aacute
ENCODING 225
SWIDTH 500 0
DWIDTH 14 0
BBX 14 28 0 -6
BITMAP
0000
0000
0000
0000
0000
0180
0300
0600
0000
1FC0
0060
0030
0030
1FF0
3030
6030
6030
6030
6030
6030
3030
1FF0
0000
0000
0000
0000
0000
0000
ENDCHAR
STARTCHAR acircumflex
ENCODING 226
SWIDTH 500 0
DWIDTH 14 0
BBX 14 28 0 -6
BITMAP
0000
0000
0000
0000
0000
0700
0D80
18C0
0000
1FC0
0060
0030
0030
1FF0
3030
6030
6030
6030
6030
6030
3030
1FF0
0000
0000
0000
0000
0000
0000
ENDCHAR
STARTCHAR atilde
ENCODING 227
SWIDTH 500 0
DWIDTH 14 0
BBX 14 28 0 -6
BITMAP
0000
0000
0000
0000
0000
1C60
3760
31C0
0000
1FC0
0060
0030
0030
1FF0
3030
6030
6030
6030
6030
6030
3030
1FF0
0000
0000
0000
0000
0000
0000
ENDCHAR
STARTCHAR adieresis
ENCODING 228
SWIDTH 500 0
DWIDTH 14 0
BBX 14 28 0 -6
BITMAP
0000
0000
0000
0000
0000
18C0
18C0
18C0
0000
1FC0
0060
0030
0030
1FF0
3030
6030
6030
6030
6030
6030
3030
1FF0
0000
0000
0000
0000
0000
0000
ENDCHAR
STARTCHAR aring
ENCODING 229
SWIDTH 500 0
DWIDTH 14 0
BBX 14 28 0 -6
BITMAP
0000
0000
0000
0000
0000
0780
0CC0
0CC0
0780
1FC0
0060
0030
0030
1FF0
3030
6030
6030
6030
6030
6030
3030
1FF0
0000
0000
0000
0000
0000
0000
ENDCHAR
STARTCHAR ae
ENCODING 230
SWIDTH 500 0
DWIDTH 14 0
BBX 14 28 0 -6
BITMAP
0000
0000
0000
0000
0000
0000
0000
0000
0000
7DE0
0730
0318
0318
0318
3F18
63F8
C300
C300
C300
C300
6398
3EF0
0000
0000
0000
0000
0000
0000
ENDCHAR
STARTCHAR ccedilla
ENCODING 231
SWIDTH 500 0
DWIDTH 14 0
BBX 14 28 0 -6
BITMAP
0000
0000
0000
0000
0000
0000
0000
0000
0000
1FC0
3060
6030
6000
6000
6000
6000
6000
6000
6000
6030
3060
1FC0
0600
0600
0600
0C00
1800
0000
ENDCHAR
STARTCHAR egrave
ENCODING 232
SWIDTH 500 0
DWIDTH 14 0
BBX 14 28 0 -6
BITMAP
0000
0000
0000
0000
0000
0C00
0600
0300
0000
1FC0
3060
6030
6030
6030
6030
7FF0
6000
6000
6000
6000
3030
1FE0
0000
0000
0000
0000
0000
0000
ENDCHAR
STARTCHAR eacute
ENCODING 233
SWIDTH 500 0
DWIDTH 14 0
BBX 14 28 0 -6
BITMAP
0000
0000
0000
0000
0000
0180
0300
0600
0000
1FC0
3060
6030
6030
6030
6030
7FF0
6000
6000
6000
6000
3030
1FE0
0000
0000
0000
0000
0000
0000
ENDCHAR
STARTCHAR ecircumflex
ENCODING 234
SWIDTH 500 0
DWIDTH 14 0
BBX 14 28 0 -6
BITMAP
0000
0000
0000
0000
0000
0700
0D80
18C0
0000
1FC0
3060
6030
6030
6030
6030
7FF0
6000
6000
6000
6000
3030
1FE0
0000
0000
0000
0000
0000
0000
ENDCHAR
STARTCHAR edieresis
ENCODING 235
SWIDTH 500 0
DWIDTH 14 0
BBX 14 28 0 -6
BITMAP
0000
0000
0000
0000
0000
18C0
18C0
18C0
0000
1FC0
3060
6030
6030
6030
6030
7FF0
6000
6000
6000
6000
3030
1FE0
0000
0000
0000
0000
0000
0000
ENDCHAR
STARTCHAR igrave
ENCODING 236
SWIDTH 500 0
DWIDTH 14 0
BBX 14 28 0 -6
BITMAP
0000
0000
0000
0000
0000
0C00
0600
0300
0000
0F00
0300
0300
0300
0300
0300
0300
0300
0300
0300
0300
0300
0FC0
0000
0000
0000
0000
0000
0000
ENDCHAR
STARTCHAR iacute
ENCODING 237
SWIDTH 500 0
DWIDTH 14 0
BBX 14 28 0 -6
BITMAP
0000
0000
0000
0000
0000
00C0
0180
0300
0000
0F00
0300
0300
0300
0300
0300
0300
0300
0300
0300
0300
0300
0FC0
0000
0000
0000
0000
0000
0000
ENDCHAR
STARTCHAR icircumflex
ENCODING 238
SWIDTH 500 0
DWIDTH 14 0
BBX 14 28 0 -6
BITMAP
0000
0000
0000
0000
0000
0700
0D80
18C0
0000
0F00
0300
0300
0300
0300
0300
0300
0300
0300
0300
0300
0300
0FC0
0000
0000
0000
0000
0000
0000
ENDCHAR
STARTCHAR idieresis
ENCODING 239
SWIDTH 500 0
DWIDTH 14 0
BBX 14 28 0 -6
BITMAP
0000
0000
0000
0000
0000
18C0
18C0
18C0
0000
0F00
0300
0300
0300
0300
0300
0300
0300
0300
0300
0300
0300
0FC0
0000
0000
0000
0000
0000
0000
ENDCHAR
STARTCHAR eth
ENCODING 240
SWIDTH 500 0
DWIDTH 14 0
BBX 14 28 0 -6
BITMAP
0000
0000
0000
0000
1980
0F00
1E00
3300
0180
1FC0
3060
6030
6030
6030
6030
6030
6030
6030
6030
6030
3060
1FC0
0000
0000
0000
0000
0000
0000
ENDCHAR
STARTCHAR ntilde
ENCODING 241
SWIDTH 500 0
DWIDTH 14 0
BBX 14 28 0 -6
BITMAP
0000
0000
0000
0000
0000
3C60
6660
63C0
0000
7FC0
6060
6030
6030
6030
6030
6030
6030
6030
6030
6030
6030
6030
0000
0000
0000
0000
0000
0000
ENDCHAR
STARTCHAR ograve
ENCODING 242
SWIDTH 500 0
DWIDTH 14 0
BBX 14 28 0 -6
BITMAP
0000
0000
0000
0000
0000
0C00
0600
0300
0000
1FC0
3060
6030
6030
6030
6030
6030
6030
6030
6030
6030
3060
1FC0
0000
0000
0000
0000
0000
0000
ENDCHAR
STARTCHAR oacute
ENCODING 243
SWIDTH 500 0
DWIDTH 14 0
BBX 14 28 0 -6
BITMAP
0000
0000
0000
0000
0000
0180
0300
0600
0000
1FC0
3060
6030
6030
6030
6030
6030
6030
6030
6030
6030
3060
1FC0
0000
0000
0000
0000
0000
0000
ENDCHAR
STARTCHAR ocircumflex
ENCODING 244
SWIDTH 500 0
DWIDTH 14 0
BBX 14 28 0 -6
BITMAP
0000
0000
0000
0000
0000
0700
0D80
18C0
0000
1FC0
3060
6030
6030
6030
6030
6030
6030
6030
6030
6030
3060
1FC0
0000
0000
0000
0000
0000
0000
ENDCHAR
STARTCHAR otilde
ENCODING 245
SWIDTH 500 0
DWIDTH 14 0
BBX 14 28 0 -6
BITMAP
0000
0000
0000
0000
0000
1C60
3760
31C0
0000
1FC0
3060
6030
6030
6030
6030
6030
6030
6030
6030
6030
3060
1FC0
0000
0000
0000
0000
0000
0000
ENDCHAR
STARTCHAR odieresis
ENCODING 246
SWIDTH 500 0
DWIDTH 14 0
BBX 14 28 0 -6
BITMAP
0000
0000
0000
0000
0000
18C0
18C0
18C0
0000
1FC0
3060
6030
6030
6030
6030
6030
6030
6030
6030
6030
3060
1FC0
0000
0000
0000
0000
0000
0000
ENDCHAR
STARTCHAR divide
ENCODING 247
SWIDTH 500 0
DWIDTH 14 0
BBX 14 28 0 -6
BITMAP
0000
0000
0000
0000
0000
0000
0000
0300
0300
0300
0300
0000
0000
7FF8
0000
0000
0300
0300
0300
0300
0000
0000
0000
0000
0000
0000
0000
0000
ENDCHAR
STARTCHAR oslash
ENCODING 248
SWIDTH 500 0
DWIDTH 14 0
BBX 14 28 0 -6
BITMAP
0000
0000
0000
0000
0000
0000
0000
0000
0000
1FD8
3078
6070
60F0
61B0
6330
6630
6C30
7830
7030
6030
F060
DFC0
0000
0000
0000
0000
0000
0000
ENDCHAR
STARTCHAR ugrave
ENCODING 249
SWIDTH 500 0
DWIDTH 14 0
BBX 14 28 0 -6
BITMAP
0000
0000
0000
0000
0000
0C00
0600
0300
0000
6030
6030
6030
6030
6030
6030
6030
6030
6030
6030
6030
3030
1FF0
0000
0000
0000
0000
0000
0000
ENDCHAR
STARTCHAR uacute
ENCODING 250
SWIDTH 500 0
DWIDTH 14 0
BBX 14 28 0 -6
BITMAP
0000
0000
0000
0000
0000
0180
0300
0600
0000
6030
6030
6030
6030
6030
6030
6030
6030
6030
6030
6030
3030
1FF0
0000
0000
0000
0000
0000
0000
ENDCHAR
STARTCHAR ucircumflex
ENCODING 251
SWIDTH 500 0
DWIDTH 14 0
BBX 14 28 0 -6
BITMAP
0000
0000
0000
0000
0000
0700
0D80
18C0
0000
6030
6030
6030
6030
6030
6030
6030
6030
6030
6030
6030
3030
1FF0
0000
0000
0000
0000
0000
0000
ENDCHAR
STARTCHAR udieresis
ENCODING 252
SWIDTH 500 0
DWIDTH 14 0
BBX 14 28 0 -6
BITMAP
0000
0000
0000
0000
0000
18C0
18C0
18C0
0000
6030
6030
6030
6030
6030
6030
6030
6030
6030
6030
6030
3030
1FF0
0000
0000
0000
0000
0000
0000
ENDCHAR
STARTCHAR yacute
ENCODING 253
SWIDTH 500 0
DWIDTH 14 0
BBX 14 28 0 -6
BITMAP
0000
0000
0000
0000
0000
0180
0300
0600
0000
6030
6030
6030
6030
6030
6030
6030
6030
6030
6030
6030
3030
1FF0
0030
0030
0030
0060
3FC0
0000
ENDCHAR
STARTCHAR thorn
ENCODING 254
SWIDTH 500 0
DWIDTH 14 0
BBX 14 28 0 -6
BITMAP
0000
0000
0000
0000
6000
6000
6000
6000
6000
7FC0
6060
6030
6030
6030
6030
6030
6030
6030
6030
6030
6060
7FC0
6000
6000
6000
6000
6000
0000
ENDCHAR
STARTCHAR ydieresis
ENCODING 255
SWIDTH 500 0
DWIDTH 14 0
BBX 14 28 0 -6
BITMAP
0000
0000
0000
0000
0000
18C0
18C0
18C0
0000
6030
6030
6030
6030
6030
6030
6030
6030
6030
6030
6030
3030
1FF0
0030
0030
0030
0060
3FC0
0000
ENDCHAR
ENDFONT
