STARTFONT 2.1
FONT -xos4-Terminus-Medium-R-Normal--22-220-72-72-C-110-ISO10646-1
SIZE 22 72 72
FONTBOUNDINGBOX 11 22 0 -5
STARTPROPERTIES 20
FAMILY_NAME "Terminus"
FOUNDRY "xos4"
SETWIDTH_NAME "Normal"
ADD_STYLE_NAME ""
COPYRIGHT "Copyright (C) 2019 Dimitar Toshkov Zhekov"
NOTICE "Licensed under the SIL Open Font License, Version 1.1"
WEIGHT_NAME "Medium"
SLANT "R"
PIXEL_SIZE 22
POINT_SIZE 220
RESOLUTION_X 72
RESOLUTION_Y 72
SPACING "C"
AVERAGE_WIDTH 110
CHARSET_REGISTRY "ISO10646"
CHARSET_ENCODING "1"
MIN_SPACE 11
FONT_ASCENT 17
FONT_DESCENT 5
DEFAULT_CHAR 65533
ENDPROPERTIES
CHARS 1354
STARTCHAR char0
ENCODING 0
SWIDTH 500 0
DWIDTH 11 0
BBX 11 22 0 -5
BITMAP
0000
0000
0000
7380
4080
4080
0000
0000
4080
4080
4080
4080
0000
0000
4080
4080
7380
0000
0000
0000
0000
0000
ENDCHAR
STARTCHAR space
ENCODING 32
SWIDTH 500 0
DWIDTH 11 0
BBX 11 22 0 -5
BITMAP
0000
0000
0000
0000
0000
0000
0000
0000
0000
0000
0000
0000
0000
0000
0000
0000
0000
0000
0000
0000
0000
0000
ENDCHAR
STARTCHAR exclam
ENCODING 33
SWIDTH 500 0
DWIDTH 11 0
BBX 11 22 0 -5
BITMAP
0000
0000
0000
0400
0400
0400
0400
0400
0400
0400
0400
0400
0000
0000
0400
0400
0400
0000
0000
0000
0000
0000
ENDCHAR
STARTCHAR quotedbl
ENCODING 34
SWIDTH 500 0
DWIDTH 11 0
BBX 11 22 0 -5
BITMAP
0000
1100
1100
1100
1100
1100
0000
0000
0000
0000
0000
0000
0000
0000
0000
0000
0000
0000
0000
0000
0000
0000
ENDCHAR
STARTCHAR numbersign
ENCODING 35
SWIDTH 500 0
DWIDTH 11 0
BBX 11 22 0 -5
BITMAP
0000
0000
0000
1100
1100
1100
1100
7FC0
1100
1100
1100
1100
7FC0
1100
1100
1100
1100
0000
0000
0000
0000
0000
ENDCHAR
STARTCHAR dollar
ENCODING 36
SWIDTH 500 0
DWIDTH 11 0
BBX 11 22 0 -5
BITMAP
0000
0000
0400
0400
1F00
2480
4440
4400
4400
2400
1F00
0480
0440
0440
4440
2480
1F00
0400
0400
0000
0000
0000
ENDCHAR
STARTCHAR percent
ENCODING 37
SWIDTH 500 0
DWIDTH 11 0
BBX 11 22 0 -5
BITMAP
0000
0000
0000
3080
4880
4900
3100
0200
0200
0400
0400
0800
0800
1180
1240
2240
2180
0000
0000
0000
0000
0000
ENDCHAR
STARTCHAR ampersand
ENCODING 38
SWIDTH 500 0
DWIDTH 11 0
BBX 11 22 0 -5
BITMAP
0000
0000
0000
1E00
2100
2100
2100
1200
0C00
1400
2240
4140
4080
4080
4080
2140
1E40
0000
0000
0000
0000
0000
ENDCHAR
STARTCHAR quotesingle
ENCODING 39
SWIDTH 500 0
DWIDTH 11 0
BBX 11 22 0 -5
BITMAP
0000
0400
0400
0400
0400
0400
0000
0000
0000
0000
0000
0000
0000
0000
0000
0000
0000
0000
0000
0000
0000
0000
ENDCHAR
STARTCHAR parenleft
ENCODING 40
SWIDTH 500 0
DWIDTH 11 0
BBX 11 22 0 -5
BITMAP
0000
0000
0000
0200
0400
0800
0800
1000
1000
1000
1000
1000
1000
0800
0800
0400
0200
0000
0000
0000
0000
0000
ENDCHAR
STARTCHAR parenright
ENCODING 41
SWIDTH 500 0
DWIDTH 11 0
BBX 11 22 0 -5
BITMAP
0000
0000
0000
1000
0800
0400
0400
0200
0200
0200
0200
0200
0200
0400
0400
0800
1000
0000
0000
0000
0000
0000
ENDCHAR
STARTCHAR asterisk
ENCODING 42
SWIDTH 500 0
DWIDTH 11 0
BBX 11 22 0 -5
BITMAP
0000
0000
0000
0000
0000
0000
2080
1100
0A00
0400
7FC0
0400
0A00
1100
2080
0000
0000
0000
0000
0000
0000
0000
ENDCHAR
STARTCHAR plus
ENCODING 43
SWIDTH 500 0
DWIDTH 11 0
BBX 11 22 0 -5
BITMAP
0000
0000
0000
0000
0000
0000
0400
0400
0400
0400
7FC0
0400
0400
0400
0400
0000
0000
0000
0000
0000
0000
0000
ENDCHAR
STARTCHAR comma
ENCODING 44
SWIDTH 500 0
DWIDTH 11 0
BBX 11 22 0 -5
BITMAP
0000
0000
0000
0000
0000
0000
0000
0000
0000
0000
0000
0000
0000
0400
0400
0400
0400
0800
0000
0000
0000
0000
ENDCHAR
STARTCHAR hyphen
ENCODING 45
SWIDTH 500 0
DWIDTH 11 0
BBX 11 22 0 -5
BITMAP
0000
0000
0000
0000
0000
0000
0000
0000
0000
0000
7F80
0000
0000
0000
0000
0000
0000
0000
0000
0000
0000
0000
ENDCHAR
STARTCHAR period
ENCODING 46
SWIDTH 500 0
DWIDTH 11 0
BBX 11 22 0 -5
BITMAP
0000
0000
0000
0000
0000
0000
0000
0000
0000
0000
0000
0000
0000
0000
0400
0400
0400
0000
0000
0000
0000
0000
ENDCHAR
STARTCHAR slash
ENCODING 47
SWIDTH 500 0
DWIDTH 11 0
BBX 11 22 0 -5
BITMAP
0000
0000
0000
0080
0080
0100
0100
0200
0200
0400
0400
0800
0800
1000
1000
2000
2000
0000
0000
0000
0000
0000
ENDCHAR
STARTCHAR zero
ENCODING 48
SWIDTH 500 0
DWIDTH 11 0
BBX 11 22 0 -5
BITMAP
0000
0000
0000
1E00
2100
4080
4080
4180
4280
4480
4880
5080
6080
4080
4080
2100
1E00
0000
0000
0000
0000
0000
ENDCHAR
STARTCHAR one
ENCODING 49
SWIDTH 500 0
DWIDTH 11 0
BBX 11 22 0 -5
BITMAP
0000
0000
0000
0400
0C00
1400
2400
0400
0400
0400
0400
0400
0400
0400
0400
0400
3F80
0000
0000
0000
0000
0000
ENDCHAR
STARTCHAR two
ENCODING 50
SWIDTH 500 0
DWIDTH 11 0
BBX 11 22 0 -5
BITMAP
0000
0000
0000
1E00
2100
4080
4080
4080
0080
0100
0200
0400
0800
1000
2000
4000
7F80
0000
0000
0000
0000
0000
ENDCHAR
STARTCHAR three
ENCODING 51
SWIDTH 500 0
DWIDTH 11 0
BBX 11 22 0 -5
BITMAP
0000
0000
0000
1E00
2100
4080
0080
0080
0100
1E00
0100
0080
0080
0080
4080
2100
1E00
0000
0000
0000
0000
0000
ENDCHAR
STARTCHAR four
ENCODING 52
SWIDTH 500 0
DWIDTH 11 0
BBX 11 22 0 -5
BITMAP
0000
0000
0000
0080
0180
0280
0480
0880
1080
2080
4080
4080
4080
7F80
0080
0080
0080
0000
0000
0000
0000
0000
ENDCHAR
STARTCHAR five
ENCODING 53
SWIDTH 500 0
DWIDTH 11 0
BBX 11 22 0 -5
BITMAP
0000
0000
0000
7F80
4000
4000
4000
4000
7E00
0100
0080
0080
0080
4080
4080
2100
1E00
0000
0000
0000
0000
0000
ENDCHAR
STARTCHAR six
ENCODING 54
SWIDTH 500 0
DWIDTH 11 0
BBX 11 22 0 -5
BITMAP
0000
0000
0000
1F00
2000
4000
4000
4000
7E00
4100
4080
4080
4080
4080
4080
2100
1E00
0000
0000
0000
0000
0000
ENDCHAR
STARTCHAR seven
ENCODING 55
SWIDTH 500 0
DWIDTH 11 0
BBX 11 22 0 -5
BITMAP
0000
0000
0000
7F80
4080
4080
0080
0100
0100
0200
0200
0400
0400
0800
0800
0800
0800
0000
0000
0000
0000
0000
ENDCHAR
STARTCHAR eight
ENCODING 56
SWIDTH 500 0
DWIDTH 11 0
BBX 11 22 0 -5
BITMAP
0000
0000
0000
1E00
2100
4080
4080
4080
2100
1E00
2100
4080
4080
4080
4080
2100
1E00
0000
0000
0000
0000
0000
ENDCHAR
STARTCHAR nine
ENCODING 57
SWIDTH 500 0
DWIDTH 11 0
BBX 11 22 0 -5
BITMAP
0000
0000
0000
1E00
2100
4080
4080
4080
4080
4080
2080
1F80
0080
0080
0080
0100
3E00
0000
0000
0000
0000
0000
ENDCHAR
STARTCHAR colon
ENCODING 58
SWIDTH 500 0
DWIDTH 11 0
BBX 11 22 0 -5
BITMAP
0000
0000
0000
0000
0000
0000
0400
0400
0400
0000
0000
0000
0000
0400
0400
0400
0000
0000
0000
0000
0000
0000
ENDCHAR
STARTCHAR semicolon
ENCODING 59
SWIDTH 500 0
DWIDTH 11 0
BBX 11 22 0 -5
BITMAP
0000
0000
0000
0000
0000
0000
0400
0400
0400
0000
0000
0000
0000
0400
0400
0400
0400
0800
0000
0000
0000
0000
ENDCHAR
STARTCHAR less
ENCODING 60
SWIDTH 500 0
DWIDTH 11 0
BBX 11 22 0 -5
BITMAP
0000
0000
0000
0080
0100
0200
0400
0800
1000
2000
2000
1000
0800
0400
0200
0100
0080
0000
0000
0000
0000
0000
ENDCHAR
STARTCHAR equal
ENCODING 61
SWIDTH 500 0
DWIDTH 11 0
BBX 11 22 0 -5
BITMAP
0000
0000
0000
0000
0000
0000
0000
7F80
0000
0000
0000
0000
7F80
0000
0000
0000
0000
0000
0000
0000
0000
0000
ENDCHAR
STARTCHAR greater
ENCODING 62
SWIDTH 500 0
DWIDTH 11 0
BBX 11 22 0 -5
BITMAP
0000
0000
0000
2000
1000
0800
0400
0200
0100
0080
0080
0100
0200
0400
0800
1000
2000
0000
0000
0000
0000
0000
ENDCHAR
STARTCHAR question
ENCODING 63
SWIDTH 500 0
DWIDTH 11 0
BBX 11 22 0 -5
BITMAP
0000
0000
0000
1E00
2100
4080
4080
0080
0100
0200
0400
0400
0000
0000
0400
0400
0400
0000
0000
0000
0000
0000
ENDCHAR
STARTCHAR at
ENCODING 64
SWIDTH 500 0
DWIDTH 11 0
BBX 11 22 0 -5
BITMAP
0000
0000
0000
1F00
2080
4040
43C0
4440
4840
4840
4840
4840
4440
43C0
4000
2000
1FC0
0000
0000
0000
0000
0000
ENDCHAR
STARTCHAR A
ENCODING 65
SWIDTH 500 0
DWIDTH 11 0
BBX 11 22 0 -5
BITMAP
0000
0000
0000
1E00
2100
4080
4080
4080
4080
4080
7F80
4080
4080
4080
4080
4080
4080
0000
0000
0000
0000
0000
ENDCHAR
STARTCHAR B
ENCODING 66
SWIDTH 500 0
DWIDTH 11 0
BBX 11 22 0 -5
BITMAP
0000
0000
0000
7E00
4100
4080
4080
4080
4100
7E00
4100
4080
4080
4080
4080
4100
7E00
0000
0000
0000
0000
0000
ENDCHAR
STARTCHAR C
ENCODING 67
SWIDTH 500 0
DWIDTH 11 0
BBX 11 22 0 -5
BITMAP
0000
0000
0000
1E00
2100
4080
4080
4000
4000
4000
4000
4000
4000
4080
4080
2100
1E00
0000
0000
0000
0000
0000
ENDCHAR
STARTCHAR D
ENCODING 68
SWIDTH 500 0
DWIDTH 11 0
BBX 11 22 0 -5
BITMAP
0000
0000
0000
7E00
4100
4080
4080
4080
4080
4080
4080
4080
4080
4080
4080
4100
7E00
0000
0000
0000
0000
0000
ENDCHAR
STARTCHAR E
ENCODING 69
SWIDTH 500 0
DWIDTH 11 0
BBX 11 22 0 -5
BITMAP
0000
0000
0000
7F80
4000
4000
4000
4000
4000
7E00
4000
4000
4000
4000
4000
4000
7F80
0000
0000
0000
0000
0000
ENDCHAR
STARTCHAR F
ENCODING 70
SWIDTH 500 0
DWIDTH 11 0
BBX 11 22 0 -5
BITMAP
0000
0000
0000
7F80
4000
4000
4000
4000
4000
7E00
4000
4000
4000
4000
4000
4000
4000
0000
0000
0000
0000
0000
ENDCHAR
STARTCHAR G
ENCODING 71
SWIDTH 500 0
DWIDTH 11 0
BBX 11 22 0 -5
BITMAP
0000
0000
0000
1E00
2100
4080
4080
4000
4000
4000
4780
4080
4080
4080
4080
2100
1E00
0000
0000
0000
0000
0000
ENDCHAR
STARTCHAR H
ENCODING 72
SWIDTH 500 0
DWIDTH 11 0
BBX 11 22 0 -5
BITMAP
0000
0000
0000
4080
4080
4080
4080
4080
4080
7F80
4080
4080
4080
4080
4080
4080
4080
0000
0000
0000
0000
0000
ENDCHAR
STARTCHAR I
ENCODING 73
SWIDTH 500 0
DWIDTH 11 0
BBX 11 22 0 -5
BITMAP
0000
0000
0000
1F00
0400
0400
0400
0400
0400
0400
0400
0400
0400
0400
0400
0400
1F00
0000
0000
0000
0000
0000
ENDCHAR
STARTCHAR J
ENCODING 74
SWIDTH 500 0
DWIDTH 11 0
BBX 11 22 0 -5
BITMAP
0000
0000
0000
07C0
0100
0100
0100
0100
0100
0100
0100
0100
4100
4100
4100
2200
1C00
0000
0000
0000
0000
0000
ENDCHAR
STARTCHAR K
ENCODING 75
SWIDTH 500 0
DWIDTH 11 0
BBX 11 22 0 -5
BITMAP
0000
0000
0000
4080
4100
4200
4400
4800
5000
6000
6000
5000
4800
4400
4200
4100
4080
0000
0000
0000
0000
0000
ENDCHAR
STARTCHAR L
ENCODING 76
SWIDTH 500 0
DWIDTH 11 0
BBX 11 22 0 -5
BITMAP
0000
0000
0000
4000
4000
4000
4000
4000
4000
4000
4000
4000
4000
4000
4000
4000
7F80
0000
0000
0000
0000
0000
ENDCHAR
STARTCHAR M
ENCODING 77
SWIDTH 500 0
DWIDTH 11 0
BBX 11 22 0 -5
BITMAP
0000
0000
0000
4040
60C0
5140
5140
4A40
4440
4440
4040
4040
4040
4040
4040
4040
4040
0000
0000
0000
0000
0000
ENDCHAR
STARTCHAR N
ENCODING 78
SWIDTH 500 0
DWIDTH 11 0
BBX 11 22 0 -5
BITMAP
0000
0000
0000
4080
4080
4080
4080
6080
5080
4880
4480
4280
4180
4080
4080
4080
4080
0000
0000
0000
0000
0000
ENDCHAR
STARTCHAR O
ENCODING 79
SWIDTH 500 0
DWIDTH 11 0
BBX 11 22 0 -5
BITMAP
0000
0000
0000
1E00
2100
4080
4080
4080
4080
4080
4080
4080
4080
4080
4080
2100
1E00
0000
0000
0000
0000
0000
ENDCHAR
STARTCHAR P
ENCODING 80
SWIDTH 500 0
DWIDTH 11 0
BBX 11 22 0 -5
BITMAP
0000
0000
0000
7E00
4100
4080
4080
4080
4080
4100
7E00
4000
4000
4000
4000
4000
4000
0000
0000
0000
0000
0000
ENDCHAR
STARTCHAR Q
ENCODING 81
SWIDTH 500 0
DWIDTH 11 0
BBX 11 22 0 -5
BITMAP
0000
0000
0000
1E00
2100
4080
4080
4080
4080
4080
4080
4080
4080
4080
4880
2500
1E00
0100
0080
0000
0000
0000
ENDCHAR
STARTCHAR R
ENCODING 82
SWIDTH 500 0
DWIDTH 11 0
BBX 11 22 0 -5
BITMAP
0000
0000
0000
7E00
4100
4080
4080
4080
4080
4100
7E00
5000
4800
4400
4200
4100
4080
0000
0000
0000
0000
0000
ENDCHAR
STARTCHAR S
ENCODING 83
SWIDTH 500 0
DWIDTH 11 0
BBX 11 22 0 -5
BITMAP
0000
0000
0000
1E00
2100
4080
4000
4000
2000
1E00
0100
0080
0080
0080
4080
2100
1E00
0000
0000
0000
0000
0000
ENDCHAR
STARTCHAR T
ENCODING 84
SWIDTH 500 0
DWIDTH 11 0
BBX 11 22 0 -5
BITMAP
0000
0000
0000
7FC0
0400
0400
0400
0400
0400
0400
0400
0400
0400
0400
0400
0400
0400
0000
0000
0000
0000
0000
ENDCHAR
STARTCHAR U
ENCODING 85
SWIDTH 500 0
DWIDTH 11 0
BBX 11 22 0 -5
BITMAP
0000
0000
0000
4080
4080
4080
4080
4080
4080
4080
4080
4080
4080
4080
4080
2100
1E00
0000
0000
0000
0000
0000
ENDCHAR
STARTCHAR V
ENCODING 86
SWIDTH 500 0
DWIDTH 11 0
BBX 11 22 0 -5
BITMAP
0000
0000
0000
4080
4080
4080
4080
4080
2100
2100
2100
2100
1200
1200
1200
0C00
0C00
0000
0000
0000
0000
0000
ENDCHAR
STARTCHAR W
ENCODING 87
SWIDTH 500 0
DWIDTH 11 0
BBX 11 22 0 -5
BITMAP
0000
0000
0000
4040
4040
4040
4040
4040
4040
4040
4440
4440
4A40
5140
5140
60C0
4040
0000
0000
0000
0000
0000
ENDCHAR
STARTCHAR X
ENCODING 88
SWIDTH 500 0
DWIDTH 11 0
BBX 11 22 0 -5
BITMAP
0000
0000
0000
4080
4080
2100
2100
1200
1200
0C00
0C00
1200
1200
2100
2100
4080
4080
0000
0000
0000
0000
0000
ENDCHAR
STARTCHAR Y
ENCODING 89
SWIDTH 500 0
DWIDTH 11 0
BBX 11 22 0 -5
BITMAP
0000
0000
0000
4040
4040
2080
2080
1100
1100
0A00
0A00
0400
0400
0400
0400
0400
0400
0000
0000
0000
0000
0000
ENDCHAR
STARTCHAR Z
ENCODING 90
SWIDTH 500 0
DWIDTH 11 0
BBX 11 22 0 -5
BITMAP
0000
0000
0000
7F80
0080
0080
0080
0100
0200
0400
0800
1000
2000
4000
4000
4000
7F80
0000
0000
0000
0000
0000
ENDCHAR
STARTCHAR bracketleft
ENCODING 91
SWIDTH 500 0
DWIDTH 11 0
BBX 11 22 0 -5
BITMAP
0000
0000
0000
1E00
1000
1000
1000
1000
1000
1000
1000
1000
1000
1000
1000
1000
1E00
0000
0000
0000
0000
0000
ENDCHAR
STARTCHAR backslash
ENCODING 92
SWIDTH 500 0
DWIDTH 11 0
BBX 11 22 0 -5
BITMAP
0000
0000
0000
2000
2000
1000
1000
0800
0800
0400
0400
0200
0200
0100
0100
0080
0080
0000
0000
0000
0000
0000
ENDCHAR
STARTCHAR bracketright
ENCODING 93
SWIDTH 500 0
DWIDTH 11 0
BBX 11 22 0 -5
BITMAP
0000
0000
0000
1E00
0200
0200
0200
0200
0200
0200
0200
0200
0200
0200
0200
0200
1E00
0000
0000
0000
0000
0000
ENDCHAR
STARTCHAR asciicircum
ENCODING 94
SWIDTH 500 0
DWIDTH 11 0
BBX 11 22 0 -5
BITMAP
0000
0400
0A00
1100
2080
4040
0000
0000
0000
0000
0000
0000
0000
0000
0000
0000
0000
0000
0000
0000
0000
0000
ENDCHAR
STARTCHAR underscore
ENCODING 95
SWIDTH 500 0
DWIDTH 11 0
BBX 11 22 0 -5
BITMAP
0000
0000
0000
0000
0000
0000
0000
0000
0000
0000
0000
0000
0000
0000
0000
0000
0000
0000
7F80
0000
0000
0000
ENDCHAR
STARTCHAR grave
ENCODING 96
SWIDTH 500 0
DWIDTH 11 0
BBX 11 22 0 -5
BITMAP
1000
0800
0400
0000
0000
0000
0000
0000
0000
0000
0000
0000
0000
0000
0000
0000
0000
0000
0000
0000
0000
0000
ENDCHAR
STARTCHAR a
ENCODING 97
SWIDTH 500 0
DWIDTH 11 0
BBX 11 22 0 -5
BITMAP
0000
0000
0000
0000
0000
0000
0000
3E00
0100
0080
0080
3F80
4080
4080
4080
4080
3F80
0000
0000
0000
0000
0000
ENDCHAR
STARTCHAR b
ENCODING 98
SWIDTH 500 0
DWIDTH 11 0
BBX 11 22 0 -5
BITMAP
0000
0000
0000
4000
4000
4000
4000
7E00
4100
4080
4080
4080
4080
4080
4080
4100
7E00
0000
0000
0000
0000
0000
ENDCHAR
STARTCHAR c
ENCODING 99
SWIDTH 500 0
DWIDTH 11 0
BBX 11 22 0 -5
BITMAP
0000
0000
0000
0000
0000
0000
0000
1E00
2100
4080
4000
4000
4000
4000
4080
2100
1E00
0000
0000
0000
0000
0000
ENDCHAR
STARTCHAR d
ENCODING 100
SWIDTH 500 0
DWIDTH 11 0
BBX 11 22 0 -5
BITMAP
0000
0000
0000
0080
0080
0080
0080
1F80
2080
4080
4080
4080
4080
4080
4080
2080
1F80
0000
0000
0000
0000
0000
ENDCHAR
STARTCHAR e
ENCODING 101
SWIDTH 500 0
DWIDTH 11 0
BBX 11 22 0 -5
BITMAP
0000
0000
0000
0000
0000
0000
0000
1E00
2100
4080
4080
7F80
4000
4000
4000
2080
1F00
0000
0000
0000
0000
0000
ENDCHAR
STARTCHAR f
ENCODING 102
SWIDTH 500 0
DWIDTH 11 0
BBX 11 22 0 -5
BITMAP
0000
0000
0000
0780
0800
0800
0800
7F00
0800
0800
0800
0800
0800
0800
0800
0800
0800
0000
0000
0000
0000
0000
ENDCHAR
STARTCHAR g
ENCODING 103
SWIDTH 500 0
DWIDTH 11 0
BBX 11 22 0 -5
BITMAP
0000
0000
0000
0000
0000
0000
0000
1F80
2080
4080
4080
4080
4080
4080
4080
2080
1F80
0080
0080
0100
3E00
0000
ENDCHAR
STARTCHAR h
ENCODING 104
SWIDTH 500 0
DWIDTH 11 0
BBX 11 22 0 -5
BITMAP
0000
0000
0000
4000
4000
4000
4000
7E00
4100
4080
4080
4080
4080
4080
4080
4080
4080
0000
0000
0000
0000
0000
ENDCHAR
STARTCHAR i
ENCODING 105
SWIDTH 500 0
DWIDTH 11 0
BBX 11 22 0 -5
BITMAP
0000
0000
0000
0400
0400
0400
0000
1C00
0400
0400
0400
0400
0400
0400
0400
0400
1F00
0000
0000
0000
0000
0000
ENDCHAR
STARTCHAR j
ENCODING 106
SWIDTH 500 0
DWIDTH 11 0
BBX 11 22 0 -5
BITMAP
0000
0000
0000
0100
0100
0100
0000
0700
0100
0100
0100
0100
0100
0100
0100
0100
0100
2100
2100
2100
1E00
0000
ENDCHAR
STARTCHAR k
ENCODING 107
SWIDTH 500 0
DWIDTH 11 0
BBX 11 22 0 -5
BITMAP
0000
0000
0000
2000
2000
2000
2000
2080
2100
2200
2400
3800
3800
2400
2200
2100
2080
0000
0000
0000
0000
0000
ENDCHAR
STARTCHAR l
ENCODING 108
SWIDTH 500 0
DWIDTH 11 0
BBX 11 22 0 -5
BITMAP
0000
0000
0000
1C00
0400
0400
0400
0400
0400
0400
0400
0400
0400
0400
0400
0400
1F00
0000
0000
0000
0000
0000
ENDCHAR
STARTCHAR m
ENCODING 109
SWIDTH 500 0
DWIDTH 11 0
BBX 11 22 0 -5
BITMAP
0000
0000
0000
0000
0000
0000
0000
7F00
4480
4440
4440
4440
4440
4440
4440
4440
4440
0000
0000
0000
0000
0000
ENDCHAR
STARTCHAR n
ENCODING 110
SWIDTH 500 0
DWIDTH 11 0
BBX 11 22 0 -5
BITMAP
0000
0000
0000
0000
0000
0000
0000
7E00
4100
4080
4080
4080
4080
4080
4080
4080
4080
0000
0000
0000
0000
0000
ENDCHAR
STARTCHAR o
ENCODING 111
SWIDTH 500 0
DWIDTH 11 0
BBX 11 22 0 -5
BITMAP
0000
0000
0000
0000
0000
0000
0000
1E00
2100
4080
4080
4080
4080
4080
4080
2100
1E00
0000
0000
0000
0000
0000
ENDCHAR
STARTCHAR p
ENCODING 112
SWIDTH 500 0
DWIDTH 11 0
BBX 11 22 0 -5
BITMAP
0000
0000
0000
0000
0000
0000
0000
7E00
4100
4080
4080
4080
4080
4080
4080
4100
7E00
4000
4000
4000
4000
0000
ENDCHAR
STARTCHAR q
ENCODING 113
SWIDTH 500 0
DWIDTH 11 0
BBX 11 22 0 -5
BITMAP
0000
0000
0000
0000
0000
0000
0000
1F80
2080
4080
4080
4080
4080
4080
4080
2080
1F80
0080
0080
0080
0080
0000
ENDCHAR
STARTCHAR r
ENCODING 114
SWIDTH 500 0
DWIDTH 11 0
BBX 11 22 0 -5
BITMAP
0000
0000
0000
0000
0000
0000
0000
4F80
5000
6000
4000
4000
4000
4000
4000
4000
4000
0000
0000
0000
0000
0000
ENDCHAR
STARTCHAR s
ENCODING 115
SWIDTH 500 0
DWIDTH 11 0
BBX 11 22 0 -5
BITMAP
0000
0000
0000
0000
0000
0000
0000
3F00
4080
4000
4000
3F00
0080
0080
0080
4080
3F00
0000
0000
0000
0000
0000
ENDCHAR
STARTCHAR t
ENCODING 116
SWIDTH 500 0
DWIDTH 11 0
BBX 11 22 0 -5
BITMAP
0000
0000
0000
0800
0800
0800
0800
7F00
0800
0800
0800
0800
0800
0800
0800
0800
0780
0000
0000
0000
0000
0000
ENDCHAR
STARTCHAR u
ENCODING 117
SWIDTH 500 0
DWIDTH 11 0
BBX 11 22 0 -5
BITMAP
0000
0000
0000
0000
0000
0000
0000
4080
4080
4080
4080
4080
4080
4080
4080
2080
1F80
0000
0000
0000
0000
0000
ENDCHAR
STARTCHAR v
ENCODING 118
SWIDTH 500 0
DWIDTH 11 0
BBX 11 22 0 -5
BITMAP
0000
0000
0000
0000
0000
0000
0000
4080
4080
4080
2100
2100
2100
1200
1200
0C00
0C00
0000
0000
0000
0000
0000
ENDCHAR
STARTCHAR w
ENCODING 119
SWIDTH 500 0
DWIDTH 11 0
BBX 11 22 0 -5
BITMAP
0000
0000
0000
0000
0000
0000
0000
4040
4040
4040
4440
4440
4440
4440
4440
4440
3F80
0000
0000
0000
0000
0000
ENDCHAR
STARTCHAR x
ENCODING 120
SWIDTH 500 0
DWIDTH 11 0
BBX 11 22 0 -5
BITMAP
0000
0000
0000
0000
0000
0000
0000
4080
4080
2100
1200
0C00
0C00
1200
2100
4080
4080
0000
0000
0000
0000
0000
ENDCHAR
STARTCHAR y
ENCODING 121
SWIDTH 500 0
DWIDTH 11 0
BBX 11 22 0 -5
BITMAP
0000
0000
0000
0000
0000
0000
0000
4080
4080
4080
4080
4080
4080
4080
4080
2080
1F80
0080
0080
0100
3E00
0000
ENDCHAR
STARTCHAR z
ENCODING 122
SWIDTH 500 0
DWIDTH 11 0
BBX 11 22 0 -5
BITMAP
0000
0000
0000
0000
0000
0000
0000
7F80
0080
0100
0200
0400
0800
1000
2000
4000
7F80
0000
0000
0000
0000
0000
ENDCHAR
STARTCHAR braceleft
ENCODING 123
SWIDTH 500 0
DWIDTH 11 0
BBX 11 22 0 -5
BITMAP
0000
0000
0000
0300
0400
0800
0800
0800
0800
3000
0800
0800
0800
0800
0800
0400
0300
0000
0000
0000
0000
0000
ENDCHAR
STARTCHAR bar
ENCODING 124
SWIDTH 500 0
DWIDTH 11 0
BBX 11 22 0 -5
BITMAP
0000
0000
0000
0400
0400
0400
0400
0400
0400
0400
0400
0400
0400
0400
0400
0400
0400
0000
0000
0000
0000
0000
ENDCHAR
STARTCHAR braceright
ENCODING 125
SWIDTH 500 0
DWIDTH 11 0
BBX 11 22 0 -5
BITMAP
0000
0000
0000
3000
0800
0400
0400
0400
0400
0300
0400
0400
0400
0400
0400
0800
3000
0000
0000
0000
0000
0000
ENDCHAR
STARTCHAR asciitilde
ENCODING 126
SWIDTH 500 0
DWIDTH 11 0
BBX 11 22 0 -5
BITMAP
0000
3080
4880
4480
4300
0000
0000
0000
0000
0000
0000
0000
0000
0000
0000
0000
0000
0000
0000
0000
0000
0000
ENDCHAR
STARTCHAR nbspace
ENCODING 160
SWIDTH 500 0
DWIDTH 11 0
BBX 11 22 0 -5
BITMAP
0000
0000
0000
0000
0000
0000
0000
0000
0000
0000
0000
0000
0000
0000
0000
0000
0000
0000
0000
0000
0000
0000
ENDCHAR
STARTCHAR exclamdown
ENCODING 161
SWIDTH 500 0
DWIDTH 11 0
BBX 11 22 0 -5
BITMAP
0000
0000
0000
0400
0400
0400
0000
0000
0400
0400
0400
0400
0400
0400
0400
0400
0400
0000
0000
0000
0000
0000
ENDCHAR
STARTCHAR cent
ENCODING 162
SWIDTH 500 0
DWIDTH 11 0
BBX 11 22 0 -5
BITMAP
0000
0000
0000
0000
0000
0400
0400
1F00
2480
4440
4400
4400
4400
4400
4440
2480
1F00
0400
0400
0000
0000
0000
ENDCHAR
STARTCHAR sterling
ENCODING 163
SWIDTH 500 0
DWIDTH 11 0
BBX 11 22 0 -5
BITMAP
0000
0000
0000
0000
1E00
2100
2100
2000
2000
2000
7C00
2000
2000
2000
2000
2080
2080
7F80
0000
0000
0000
0000
ENDCHAR
STARTCHAR currency
ENCODING 164
SWIDTH 500 0
DWIDTH 11 0
BBX 11 22 0 -5
BITMAP
0000
0000
0000
0000
0000
4040
2080
1F00
2080
2080
2080
2080
2080
1F00
2080
4040
0000
0000
0000
0000
0000
0000
ENDCHAR
STARTCHAR yen
ENCODING 165
SWIDTH 500 0
DWIDTH 11 0
BBX 11 22 0 -5
BITMAP
0000
0000
0000
4040
4040
2080
2080
1100
1100
0A00
0400
3F80
0400
0400
3F80
0400
0400
0000
0000
0000
0000
0000
ENDCHAR
STARTCHAR brokenbar
ENCODING 166
SWIDTH 500 0
DWIDTH 11 0
BBX 11 22 0 -5
BITMAP
0000
0000
0000
0800
0800
0800
0800
0800
0800
0000
0000
0800
0800
0800
0800
0800
0800
0000
0000
0000
0000
0000
ENDCHAR
STARTCHAR section
ENCODING 167
SWIDTH 500 0
DWIDTH 11 0
BBX 11 22 0 -5
BITMAP
0000
0000
1E00
2100
2000
2000
1C00
2200
2100
2100
2100
2100
1100
0E00
0100
0100
2100
1E00
0000
0000
0000
0000
ENDCHAR
STARTCHAR dieresis
ENCODING 168
SWIDTH 500 0
DWIDTH 11 0
BBX 11 22 0 -5
BITMAP
2100
2100
2100
0000
0000
0000
0000
0000
0000
0000
0000
0000
0000
0000
0000
0000
0000
0000
0000
0000
0000
0000
ENDCHAR
STARTCHAR copyright
ENCODING 169
SWIDTH 500 0
DWIDTH 11 0
BBX 11 22 0 -5
BITMAP
0000
0000
0000
0000
0000
1F00
2080
4E40
5140
5040
5040
5040
5140
4E40
2080
1F00
0000
0000
0000
0000
0000
0000
ENDCHAR
STARTCHAR ordfeminine
ENCODING 170
SWIDTH 500 0
DWIDTH 11 0
BBX 11 22 0 -5
BITMAP
0000
1F00
0080
0080
1F80
2080
2080
2080
1F80
0000
3F80
0000
0000
0000
0000
0000
0000
0000
0000
0000
0000
0000
ENDCHAR
STARTCHAR guillemotleft
ENCODING 171
SWIDTH 500 0
DWIDTH 11 0
BBX 11 22 0 -5
BITMAP
0000
0000
0000
0000
0000
0000
0000
0440
0880
1100
2200
4400
4400
2200
1100
0880
0440
0000
0000
0000
0000
0000
ENDCHAR
STARTCHAR logicalnot
ENCODING 172
SWIDTH 500 0
DWIDTH 11 0
BBX 11 22 0 -5
BITMAP
0000
0000
0000
0000
0000
0000
0000
0000
7F80
0080
0080
0080
0080
0000
0000
0000
0000
0000
0000
0000
0000
0000
ENDCHAR
STARTCHAR softhyphen
ENCODING 173
SWIDTH 500 0
DWIDTH 11 0
BBX 11 22 0 -5
BITMAP
0000
0000
0000
0000
0000
0000
0000
0000
0000
0000
7F80
0000
0000
0000
0000
0000
0000
0000
0000
0000
0000
0000
ENDCHAR
STARTCHAR registered
ENCODING 174
SWIDTH 500 0
DWIDTH 11 0
BBX 11 22 0 -5
BITMAP
0000
0000
0000
0000
0000
1F00
2080
5E40
5140
5140
5E40
5440
5240
5140
2080
1F00
0000
0000
0000
0000
0000
0000
ENDCHAR
STARTCHAR macron
ENCODING 175
SWIDTH 500 0
DWIDTH 11 0
BBX 11 22 0 -5
BITMAP
0000
3F00
0000
0000
0000
0000
0000
0000
0000
0000
0000
0000
0000
0000
0000
0000
0000
0000
0000
0000
0000
0000
ENDCHAR
STARTCHAR degree
ENCODING 176
SWIDTH 500 0
DWIDTH 11 0
BBX 11 22 0 -5
BITMAP
0000
0E00
1100
1100
1100
0E00
0000
0000
0000
0000
0000
0000
0000
0000
0000
0000
0000
0000
0000
0000
0000
0000
ENDCHAR
STARTCHAR plusminus
ENCODING 177
SWIDTH 500 0
DWIDTH 11 0
BBX 11 22 0 -5
BITMAP
0000
0000
0000
0000
0000
0400
0400
0400
0400
7FC0
0400
0400
0400
0400
0000
0000
7FC0
0000
0000
0000
0000
0000
ENDCHAR
STARTCHAR twosuperior
ENCODING 178
SWIDTH 500 0
DWIDTH 11 0
BBX 11 22 0 -5
BITMAP
0000
0E00
1100
1100
0100
0200
0400
0800
1F00
0000
0000
0000
0000
0000
0000
0000
0000
0000
0000
0000
0000
0000
ENDCHAR
STARTCHAR threesuperior
ENCODING 179
SWIDTH 500 0
DWIDTH 11 0
BBX 11 22 0 -5
BITMAP
0000
0E00
1100
0100
0600
0100
0100
1100
0E00
0000
0000
0000
0000
0000
0000
0000
0000
0000
0000
0000
0000
0000
ENDCHAR
STARTCHAR acute
ENCODING 180
SWIDTH 500 0
DWIDTH 11 0
BBX 11 22 0 -5
BITMAP
0200
0400
0800
0000
0000
0000
0000
0000
0000
0000
0000
0000
0000
0000
0000
0000
0000
0000
0000
0000
0000
0000
ENDCHAR
STARTCHAR mu
ENCODING 181
SWIDTH 500 0
DWIDTH 11 0
BBX 11 22 0 -5
BITMAP
0000
0000
0000
0000
0000
0000
0000
4080
4080
4080
4080
4080
4080
4080
4180
4280
7C80
4000
4000
4000
4000
0000
ENDCHAR
STARTCHAR paragraph
ENCODING 182
SWIDTH 500 0
DWIDTH 11 0
BBX 11 22 0 -5
BITMAP
0000
0000
0000
3FC0
4440
4440
4440
4440
4440
4440
3C40
0440
0440
0440
0440
0440
0440
0000
0000
0000
0000
0000
ENDCHAR
STARTCHAR periodcentered
ENCODING 183
SWIDTH 500 0
DWIDTH 11 0
BBX 11 22 0 -5
BITMAP
0000
0000
0000
0000
0000
0000
0000
0000
0000
0400
0400
0400
0000
0000
0000
0000
0000
0000
0000
0000
0000
0000
ENDCHAR
STARTCHAR cedilla
ENCODING 184
SWIDTH 500 0
DWIDTH 11 0
BBX 11 22 0 -5
BITMAP
0000
0000
0000
0000
0000
0000
0000
0000
0000
0000
0000
0000
0000
0000
0000
0000
0000
0400
0400
0400
0800
0000
ENDCHAR
STARTCHAR onesuperior
ENCODING 185
SWIDTH 500 0
DWIDTH 11 0
BBX 11 22 0 -5
BITMAP
0000
0400
0C00
0400
0400
0400
0400
0400
0E00
0000
0000
0000
0000
0000
0000
0000
0000
0000
0000
0000
0000
0000
ENDCHAR
STARTCHAR ordmasculine
ENCODING 186
SWIDTH 500 0
DWIDTH 11 0
BBX 11 22 0 -5
BITMAP
0000
1F00
2080
2080
2080
2080
2080
2080
1F00
0000
3F80
0000
0000
0000
0000
0000
0000
0000
0000
0000
0000
0000
ENDCHAR
STARTCHAR guillemotright
ENCODING 187
SWIDTH 500 0
DWIDTH 11 0
BBX 11 22 0 -5
BITMAP
0000
0000
0000
0000
0000
0000
0000
4400
2200
1100
0880
0440
0440
0880
1100
2200
4400
0000
0000
0000
0000
0000
ENDCHAR
STARTCHAR onequarter
ENCODING 188
SWIDTH 500 0
DWIDTH 11 0
BBX 11 22 0 -5
BITMAP
0000
0000
1000
3000
5000
1040
1080
1100
1200
0400
0880
1180
2280
4480
0880
0F80
0080
0080
0000
0000
0000
0000
ENDCHAR
STARTCHAR onehalf
ENCODING 189
SWIDTH 500 0
DWIDTH 11 0
BBX 11 22 0 -5
BITMAP
0000
0000
1000
3000
5000
1040
1080
1100
1200
0400
0800
1380
2440
4440
0080
0100
0200
07C0
0000
0000
0000
0000
ENDCHAR
STARTCHAR threequarters
ENCODING 190
SWIDTH 500 0
DWIDTH 11 0
BBX 11 22 0 -5
BITMAP
0000
0000
3800
4400
0400
1800
0440
4480
3900
0200
0480
0980
1280
2480
4880
0F80
0080
0080
0000
0000
0000
0000
ENDCHAR
STARTCHAR questiondown
ENCODING 191
SWIDTH 500 0
DWIDTH 11 0
BBX 11 22 0 -5
BITMAP
0000
0000
0000
0800
0800
0800
0000
0000
0800
0800
1000
2000
4000
4080
4080
2100
1E00
0000
0000
0000
0000
0000
ENDCHAR
STARTCHAR Agrave
ENCODING 192
SWIDTH 500 0
DWIDTH 11 0
BBX 11 22 0 -5
BITMAP
1000
0800
0400
0000
1E00
2100
4080
4080
4080
4080
4080
7F80
4080
4080
4080
4080
4080
0000
0000
0000
0000
0000
ENDCHAR
STARTCHAR Aacute
ENCODING 193
SWIDTH 500 0
DWIDTH 11 0
BBX 11 22 0 -5
BITMAP
0200
0400
0800
0000
1E00
2100
4080
4080
4080
4080
4080
7F80
4080
4080
4080
4080
4080
0000
0000
0000
0000
0000
ENDCHAR
STARTCHAR Acircumflex
ENCODING 194
SWIDTH 500 0
DWIDTH 11 0
BBX 11 22 0 -5
BITMAP
0C00
1200
2100
0000
1E00
2100
4080
4080
4080
4080
4080
7F80
4080
4080
4080
4080
4080
0000
0000
0000
0000
0000
ENDCHAR
STARTCHAR Atilde
ENCODING 195
SWIDTH 500 0
DWIDTH 11 0
BBX 11 22 0 -5
BITMAP
1880
2480
2300
0000
1E00
2100
4080
4080
4080
4080
4080
7F80
4080
4080
4080
4080
4080
0000
0000
0000
0000
0000
ENDCHAR
STARTCHAR Adieresis
ENCODING 196
SWIDTH 500 0
DWIDTH 11 0
BBX 11 22 0 -5
BITMAP
2100
2100
2100
0000
1E00
2100
4080
4080
4080
4080
4080
7F80
4080
4080
4080
4080
4080
0000
0000
0000
0000
0000
ENDCHAR
STARTCHAR Aring
ENCODING 197
SWIDTH 500 0
DWIDTH 11 0
BBX 11 22 0 -5
BITMAP
0C00
1200
1200
0C00
1E00
2100
4080
4080
4080
4080
4080
7F80
4080
4080
4080
4080
4080
0000
0000
0000
0000
0000
ENDCHAR
STARTCHAR AE
ENCODING 198
SWIDTH 500 0
DWIDTH 11 0
BBX 11 22 0 -5
BITMAP
0000
0000
0000
3FC0
4400
8400
8400
8400
8400
FFC0
8400
8400
8400
8400
8400
8400
87C0
0000
0000
0000
0000
0000
ENDCHAR
STARTCHAR Ccedilla
ENCODING 199
SWIDTH 500 0
DWIDTH 11 0
BBX 11 22 0 -5
BITMAP
0000
0000
0000
1E00
2100
4080
4080
4000
4000
4000
4000
4000
4000
4080
4080
2100
1E00
0400
0400
0400
0800
0000
ENDCHAR
STARTCHAR Egrave
ENCODING 200
SWIDTH 500 0
DWIDTH 11 0
BBX 11 22 0 -5
BITMAP
1000
0800
0400
0000
7F80
4000
4000
4000
4000
4000
7E00
4000
4000
4000
4000
4000
7F80
0000
0000
0000
0000
0000
ENDCHAR
STARTCHAR Eacute
ENCODING 201
SWIDTH 500 0
DWIDTH 11 0
BBX 11 22 0 -5
BITMAP
0200
0400
0800
0000
7F80
4000
4000
4000
4000
4000
7E00
4000
4000
4000
4000
4000
7F80
0000
0000
0000
0000
0000
ENDCHAR
STARTCHAR Ecircumflex
ENCODING 202
SWIDTH 500 0
DWIDTH 11 0
BBX 11 22 0 -5
BITMAP
0C00
1200
2100
0000
7F80
4000
4000
4000
4000
4000
7E00
4000
4000
4000
4000
4000
7F80
0000
0000
0000
0000
0000
ENDCHAR
STARTCHAR Edieresis
ENCODING 203
SWIDTH 500 0
DWIDTH 11 0
BBX 11 22 0 -5
BITMAP
2100
2100
2100
0000
7F80
4000
4000
4000
4000
4000
7E00
4000
4000
4000
4000
4000
7F80
0000
0000
0000
0000
0000
ENDCHAR
STARTCHAR Igrave
ENCODING 204
SWIDTH 500 0
DWIDTH 11 0
BBX 11 22 0 -5
BITMAP
1000
0800
0400
0000
1F00
0400
0400
0400
0400
0400
0400
0400
0400
0400
0400
0400
1F00
0000
0000
0000
0000
0000
ENDCHAR
STARTCHAR Iacute
ENCODING 205
SWIDTH 500 0
DWIDTH 11 0
BBX 11 22 0 -5
BITMAP
0100
0200
0400
0000
1F00
0400
0400
0400
0400
0400
0400
0400
0400
0400
0400
0400
1F00
0000
0000
0000
0000
0000
ENDCHAR
STARTCHAR Icircumflex
ENCODING 206
SWIDTH 500 0
DWIDTH 11 0
BBX 11 22 0 -5
BITMAP
0C00
1200
2100
0000
1F00
0400
0400
0400
0400
0400
0400
0400
0400
0400
0400
0400
1F00
0000
0000
0000
0000
0000
ENDCHAR
STARTCHAR Idieresis
ENCODING 207
SWIDTH 500 0
DWIDTH 11 0
BBX 11 22 0 -5
BITMAP
2100
2100
2100
0000
1F00
0400
0400
0400
0400
0400
0400
0400
0400
0400
0400
0400
1F00
0000
0000
0000
0000
0000
ENDCHAR
STARTCHAR Eth
ENCODING 208
SWIDTH 500 0
DWIDTH 11 0
BBX 11 22 0 -5
BITMAP
0000
0000
0000
7E00
4100
4080
4080
4080
4080
F880
4080
4080
4080
4080
4080
4100
7E00
0000
0000
0000
0000
0000
ENDCHAR
STARTCHAR Ntilde
ENCODING 209
SWIDTH 500 0
DWIDTH 11 0
BBX 11 22 0 -5
BITMAP
1880
2480
2300
0000
4080
4080
4080
6080
5080
4880
4480
4280
4180
4080
4080
4080
4080
0000
0000
0000
0000
0000
ENDCHAR
STARTCHAR Ograve
ENCODING 210
SWIDTH 500 0
DWIDTH 11 0
BBX 11 22 0 -5
BITMAP
1000
0800
0400
0000
1E00
2100
4080
4080
4080
4080
4080
4080
4080
4080
4080
2100
1E00
0000
0000
0000
0000
0000
ENDCHAR
STARTCHAR Oacute
ENCODING 211
SWIDTH 500 0
DWIDTH 11 0
BBX 11 22 0 -5
BITMAP
0200
0400
0800
0000
1E00
2100
4080
4080
4080
4080
4080
4080
4080
4080
4080
2100
1E00
0000
0000
0000
0000
0000
ENDCHAR
STARTCHAR Ocircumflex
ENCODING 212
SWIDTH 500 0
DWIDTH 11 0
BBX 11 22 0 -5
BITMAP
0C00
1200
2100
0000
1E00
2100
4080
4080
4080
4080
4080
4080
4080
4080
4080
2100
1E00
0000
0000
0000
0000
0000
ENDCHAR
STARTCHAR Otilde
ENCODING 213
SWIDTH 500 0
DWIDTH 11 0
BBX 11 22 0 -5
BITMAP
1880
2480
2300
0000
1E00
2100
4080
4080
4080
4080
4080
4080
4080
4080
4080
2100
1E00
0000
0000
0000
0000
0000
ENDCHAR
STARTCHAR Odieresis
ENCODING 214
SWIDTH 500 0
DWIDTH 11 0
BBX 11 22 0 -5
BITMAP
2100
2100
2100
0000
1E00
2100
4080
4080
4080
4080
4080
4080
4080
4080
4080
2100
1E00
0000
0000
0000
0000
0000
ENDCHAR
STARTCHAR multiply
ENCODING 215
SWIDTH 500 0
DWIDTH 11 0
BBX 11 22 0 -5
BITMAP
0000
0000
0000
0000
0000
0000
0000
4080
2100
1200
0C00
0C00
1200
2100
4080
0000
0000
0000
0000
0000
0000
0000
ENDCHAR
STARTCHAR Oslash
ENCODING 216
SWIDTH 500 0
DWIDTH 11 0
BBX 11 22 0 -5
BITMAP
0000
0000
0000
1E00
2100
40C0
4080
4180
4280
4480
4880
5080
6080
4080
C080
2100
1E00
0000
0000
0000
0000
0000
ENDCHAR
STARTCHAR Ugrave
ENCODING 217
SWIDTH 500 0
DWIDTH 11 0
BBX 11 22 0 -5
BITMAP
1000
0800
0400
4080
4080
4080
4080
4080
4080
4080
4080
4080
4080
4080
4080
2100
1E00
0000
0000
0000
0000
0000
ENDCHAR
STARTCHAR Uacute
ENCODING 218
SWIDTH 500 0
DWIDTH 11 0
BBX 11 22 0 -5
BITMAP
0200
0400
0800
4080
4080
4080
4080
4080
4080
4080
4080
4080
4080
4080
4080
2100
1E00
0000
0000
0000
0000
0000
ENDCHAR
STARTCHAR Ucircumflex
ENCODING 219
SWIDTH 500 0
DWIDTH 11 0
BBX 11 22 0 -5
BITMAP
0C00
1200
2100
0000
4080
4080
4080
4080
4080
4080
4080
4080
4080
4080
4080
2100
1E00
0000
0000
0000
0000
0000
ENDCHAR
STARTCHAR Udieresis
ENCODING 220
SWIDTH 500 0
DWIDTH 11 0
BBX 11 22 0 -5
BITMAP
2100
2100
2100
0000
4080
4080
4080
4080
4080
4080
4080
4080
4080
4080
4080
2100
1E00
0000
0000
0000
0000
0000
ENDCHAR
STARTCHAR Yacute
ENCODING 221
SWIDTH 500 0
DWIDTH 11 0
BBX 11 22 0 -5
BITMAP
0100
0200
0400
4040
4040
2080
2080
1100
1100
0A00
0A00
0400
0400
0400
0400
0400
0400
0000
0000
0000
0000
0000
ENDCHAR
STARTCHAR Thorn
ENCODING 222
SWIDTH 500 0
DWIDTH 11 0
BBX 11 22 0 -5
BITMAP
0000
0000
0000
4000
4000
4000
4000
7E00
4100
4080
4080
4080
4080
4080
4080
4100
7E00
4000
4000
4000
4000
0000
ENDCHAR
STARTCHAR germandbls
ENCODING 223
SWIDTH 500 0
DWIDTH 11 0
BBX 11 22 0 -5
BITMAP
0000
0000
0000
3C00
4200
4100
4100
4100
4200
7E00
4100
4080
4080
4080
4080
6100
5E00
0000
0000
0000
0000
0000
ENDCHAR
STARTCHAR agrave
ENCODING 224
SWIDTH 500 0
DWIDTH 11 0
BBX 11 22 0 -5
BITMAP
0000
0000
0000
1000
0800
0400
0000
3E00
0100
0080
0080
3F80
4080
4080
4080
4080
3F80
0000
0000
0000
0000
0000
ENDCHAR
STARTCHAR aacute
ENCODING 225
SWIDTH 500 0
DWIDTH 11 0
BBX 11 22 0 -5
BITMAP
0000
0000
0000
0200
0400
0800
0000
3E00
0100
0080
0080
3F80
4080
4080
4080
4080
3F80
0000
0000
0000
0000
0000
ENDCHAR
STARTCHAR acircumflex
ENCODING 226
SWIDTH 500 0
DWIDTH 11 0
BBX 11 22 0 -5
BITMAP
0000
0000
0000
0C00
1200
2100
0000
3E00
0100
0080
0080
3F80
4080
4080
4080
4080
3F80
0000
0000
0000
0000
0000
ENDCHAR
STARTCHAR atilde
ENCODING 227
SWIDTH 500 0
DWIDTH 11 0
BBX 11 22 0 -5
BITMAP
0000
0000
0000
1880
2480
2300
0000
3E00
0100
0080
0080
3F80
4080
4080
4080
4080
3F80
0000
0000
0000
0000
0000
ENDCHAR
STARTCHAR adieresis
ENCODING 228
SWIDTH 500 0
DWIDTH 11 0
BBX 11 22 0 -5
BITMAP
0000
0000
0000
2100
2100
2100
0000
3E00
0100
0080
0080
3F80
4080
4080
4080
4080
3F80
0000
0000
0000
0000
0000
ENDCHAR
STARTCHAR aring
ENCODING 229
SWIDTH 500 0
DWIDTH 11 0
BBX 11 22 0 -5
BITMAP
0000
0000
0000
0C00
1200
1200
0C00
3E00
0100
0080
0080
3F80
4080
4080
4080
4080
3F80
0000
0000
0000
0000
0000
ENDCHAR
STARTCHAR ae
ENCODING 230
SWIDTH 500 0
DWIDTH 11 0
BBX 11 22 0 -5
BITMAP
0000
0000
0000
0000
0000
0000
0000
3B80
0440
0440
0440
3FC0
4400
4400
4400
4440
3B80
0000
0000
0000
0000
0000
ENDCHAR
STARTCHAR ccedilla
ENCODING 231
SWIDTH 500 0
DWIDTH 11 0
BBX 11 22 0 -5
BITMAP
0000
0000
0000
0000
0000
0000
0000
1E00
2100
4080
4000
4000
4000
4000
4080
2100
1E00
0400
0400
0400
0800
0000
ENDCHAR
STARTCHAR egrave
ENCODING 232
SWIDTH 500 0
DWIDTH 11 0
BBX 11 22 0 -5
BITMAP
0000
0000
0000
1000
0800
0400
0000
1E00
2100
4080
4080
7F80
4000
4000
4000
2080
1F00
0000
0000
0000
0000
0000
ENDCHAR
STARTCHAR eacute
ENCODING 233
SWIDTH 500 0
DWIDTH 11 0
BBX 11 22 0 -5
BITMAP
0000
0000
0000
0200
0400
0800
0000
1E00
2100
4080
4080
7F80
4000
4000
4000
2080
1F00
0000
0000
0000
0000
0000
ENDCHAR
STARTCHAR ecircumflex
ENCODING 234
SWIDTH 500 0
DWIDTH 11 0
BBX 11 22 0 -5
BITMAP
0000
0000
0000
0C00
1200
2100
0000
1E00
2100
4080
4080
7F80
4000
4000
4000
2080
1F00
0000
0000
0000
0000
0000
ENDCHAR
STARTCHAR edieresis
ENCODING 235
SWIDTH 500 0
DWIDTH 11 0
BBX 11 22 0 -5
BITMAP
0000
0000
0000
2100
2100
2100
0000
1E00
2100
4080
4080
7F80
4000
4000
4000
2080
1F00
0000
0000
0000
0000
0000
ENDCHAR
STARTCHAR igrave
ENCODING 236
SWIDTH 500 0
DWIDTH 11 0
BBX 11 22 0 -5
BITMAP
0000
0000
0000
1000
0800
0400
0000
1C00
0400
0400
0400
0400
0400
0400
0400
0400
1F00
0000
0000
0000
0000
0000
ENDCHAR
STARTCHAR iacute
ENCODING 237
SWIDTH 500 0
DWIDTH 11 0
BBX 11 22 0 -5
BITMAP
0000
0000
0000
0100
0200
0400
0000
1C00
0400
0400
0400
0400
0400
0400
0400
0400
1F00
0000
0000
0000
0000
0000
ENDCHAR
STARTCHAR icircumflex
ENCODING 238
SWIDTH 500 0
DWIDTH 11 0
BBX 11 22 0 -5
BITMAP
0000
0000
0000
0C00
1200
2100
0000
1C00
0400
0400
0400
0400
0400
0400
0400
0400
1F00
0000
0000
0000
0000
0000
ENDCHAR
STARTCHAR idieresis
ENCODING 239
SWIDTH 500 0
DWIDTH 11 0
BBX 11 22 0 -5
BITMAP
0000
0000
0000
2100
2100
2100
0000
1C00
0400
0400
0400
0400
0400
0400
0400
0400
1F00
0000
0000
0000
0000
0000
ENDCHAR
STARTCHAR eth
ENCODING 240
SWIDTH 500 0
DWIDTH 11 0
BBX 11 22 0 -5
BITMAP
0000
0000
0000
2C00
1000
6800
0400
1E00
2100
4080
4080
4080
4080
4080
4080
2100
1E00
0000
0000
0000
0000
0000
ENDCHAR
STARTCHAR ntilde
ENCODING 241
SWIDTH 500 0
DWIDTH 11 0
BBX 11 22 0 -5
BITMAP
0000
0000
0000
3100
4900
4600
0000
7E00
4100
4080
4080
4080
4080
4080
4080
4080
4080
0000
0000
0000
0000
0000
ENDCHAR
STARTCHAR ograve
ENCODING 242
SWIDTH 500 0
DWIDTH 11 0
BBX 11 22 0 -5
BITMAP
0000
0000
0000
1000
0800
0400
0000
1E00
2100
4080
4080
4080
4080
4080
4080
2100
1E00
0000
0000
0000
0000
0000
ENDCHAR
STARTCHAR oacute
ENCODING 243
SWIDTH 500 0
DWIDTH 11 0
BBX 11 22 0 -5
BITMAP
0000
0000
0000
0200
0400
0800
0000
1E00
2100
4080
4080
4080
4080
4080
4080
2100
1E00
0000
0000
0000
0000
0000
ENDCHAR
STARTCHAR ocircumflex
ENCODING 244
SWIDTH 500 0
DWIDTH 11 0
BBX 11 22 0 -5
BITMAP
0000
0000
0000
0C00
1200
2100
0000
1E00
2100
4080
4080
4080
4080
4080
4080
2100
1E00
0000
0000
0000
0000
0000
ENDCHAR
STARTCHAR otilde
ENCODING 245
SWIDTH 500 0
DWIDTH 11 0
BBX 11 22 0 -5
BITMAP
0000
0000
0000
1880
2480
2300
0000
1E00
2100
4080
4080
4080
4080
4080
4080
2100
1E00
0000
0000
0000
0000
0000
ENDCHAR
STARTCHAR odieresis
ENCODING 246
SWIDTH 500 0
DWIDTH 11 0
BBX 11 22 0 -5
BITMAP
0000
0000
0000
2100
2100
2100
0000
1E00
2100
4080
4080
4080
4080
4080
4080
2100
1E00
0000
0000
0000
0000
0000
ENDCHAR
STARTCHAR divide
ENCODING 247
SWIDTH 500 0
DWIDTH 11 0
BBX 11 22 0 -5
BITMAP
0000
0000
0000
0000
0000
0400
0400
0400
0000
0000
7FC0
0000
0000
0400
0400
0400
0000
0000
0000
0000
0000
0000
ENDCHAR
STARTCHAR oslash
ENCODING 248
SWIDTH 500 0
DWIDTH 11 0
BBX 11 22 0 -5
BITMAP
0000
0000
0000
0000
0000
0000
0000
1E40
2180
4180
4280
4480
4880
5080
6080
6100
9E00
0000
0000
0000
0000
0000
ENDCHAR
STARTCHAR ugrave
ENCODING 249
SWIDTH 500 0
DWIDTH 11 0
BBX 11 22 0 -5
BITMAP
0000
0000
0000
1000
0800
0400
0000
4080
4080
4080
4080
4080
4080
4080
4080
2080
1F80
0000
0000
0000
0000
0000
ENDCHAR
STARTCHAR uacute
ENCODING 250
SWIDTH 500 0
DWIDTH 11 0
BBX 11 22 0 -5
BITMAP
0000
0000
0000
0200
0400
0800
0000
4080
4080
4080
4080
4080
4080
4080
4080
2080
1F80
0000
0000
0000
0000
0000
ENDCHAR
STARTCHAR ucircumflex
ENCODING 251
SWIDTH 500 0
DWIDTH 11 0
BBX 11 22 0 -5
BITMAP
0000
0000
0000
0C00
1200
2100
0000
4080
4080
4080
4080
4080
4080
4080
4080
2080
1F80
0000
0000
0000
0000
0000
ENDCHAR
STARTCHAR udieresis
ENCODING 252
SWIDTH 500 0
DWIDTH 11 0
BBX 11 22 0 -5
BITMAP
0000
0000
0000
2100
2100
2100
0000
4080
4080
4080
4080
4080
4080
4080
4080
2080
1F80
0000
0000
0000
0000
0000
ENDCHAR
STARTCHAR yacute
ENCODING 253
SWIDTH 500 0
DWIDTH 11 0
BBX 11 22 0 -5
BITMAP
0000
0000
0000
0200
0400
0800
0000
4080
4080
4080
4080
4080
4080
4080
4080
2080
1F80
0080
0080
0100
3E00
0000
ENDCHAR
STARTCHAR thorn
ENCODING 254
SWIDTH 500 0
DWIDTH 11 0
BBX 11 22 0 -5
BITMAP
0000
0000
0000
4000
4000
4000
4000
7E00
4100
4080
4080
4080
4080
4080
4080
4100
7E00
4000
4000
4000
4000
0000
ENDCHAR
STARTCHAR ydieresis
ENCODING 255
SWIDTH 500 0
DWIDTH 11 0
BBX 11 22 0 -5
BITMAP
0000
0000
0000
2100
2100
2100
0000
4080
4080
4080
4080
4080
4080
4080
4080
2080
1F80
0080
0080
0100
3E00
0000
ENDCHAR
STARTCHAR Amacron
ENDFONT
